<svg version="1.1" xmlns="http://www.w3.org/2000/svg" viewBox="0 0 750 282" xml:space="preserve">
<style type="text/css">
	.white{fill:#FFFFFF;}
</style>
<path class="white" d="M312.3,78c-6-4.8-13.5-7.3-21.2-7.3c-6.9,0-10.6,2-10.6,7.1c0,12.3,47.6,6.3,47.6,42.1
	c0,23.9-21.2,32.3-41.9,32.3c-13.5,0-28-3.5-36.3-12.7l14.1-18.8c6.1,5.9,14.5,8.6,23.9,8.6c6.9,0,11.8-1.6,11.8-8
	c0-13.7-47.8-6.7-47.8-42.3c0-21,18.8-31.2,41.2-31.2c12.4,0,25.5,3.1,33.3,11.6L312.3,78"/>
<path class="white" d="M371.2,50v15.1c5.9-11.2,15.5-17.6,29.2-17.6c13.1,0,22,6.1,26.1,18.2c6.3-11.2,16.3-18.2,30-18.2
	c18.2,0,28.4,12.5,28.4,35.7V150h-30.8V88.2c0-8.2-1.4-12.3-7.3-12.3C438,75.8,429,86,429,109.6V150h-30.8V87.8c0-7.4-1.2-12-7-12
	c-9,0-18,10.2-18,33.7v40.4h-30.6V50H371.2"/>
<path class="white" d="M544.2,107.2c-10.8,0-17,1.4-17,12.9c0,6.3,1.8,10,7,10c8.2,0,21.2-9,22.5-22.9L544.2,107.2 M502.9,62.1
	c10.2-11,23.9-14.3,40-14.3c28.2,0,41.5,10.2,41.5,38.4v63.7h-26.1l-0.2-12.7c-6.4,9.7-17.3,15.5-29,15.3c-9.4,0-16.9-3.1-22-7.8
	c-5.9-5.5-8.8-12.9-8.8-23.1c0-12.2,4.3-20.4,12.3-25.9c8.6-5.9,21.6-8,34.9-8h10.6v-2.5c0-11-3.7-14.3-14.7-14.3
	c-9.6,0-17,2.6-23.5,8.8L502.9,62.1z"/>
<path class="white" d="M633.4,50l-0.2,16.3c5.9-13.5,15.9-19,26.7-19c3.4,0.1,6.8,0.7,10,2L666,78.5c-2.4-0.7-4.9-1.1-7.5-1.2
	c-17.6,0-23.5,17.6-23.5,39.6V150h-30.6V50H633.4"/>
<path class="white" d="M750,148.6c-6.9,1.7-13.9,2.5-21,2.6c-27.8,0-35.5-13.7-35.5-38.2V78.4H679V51.7h14.5V24.3l30.8-2.8v30.2H749
	v26.7h-24.7v32.2c0,10.4,0.2,13.7,11.2,13.7c4.3,0,8.6-0.4,12.7-1.4L750,148.6"/>
<path class="white" d="M309,213.5c-5.5-4.4-11.5-6-18.3-6c-9.4,0-16,3.4-16,12c0,18.1,42.5,11,42.5,39.7c0,16.7-14.8,22.7-29.2,22.7
	c-9.7,0-19.8-2.8-25.4-9.4l5.8-7.1c5.2,5.4,12.1,7.6,20.4,7.6c9.7,0,17.7-3.2,17.7-13.5c-0.1-19.8-42.5-11.8-42.5-39.5
	c0-14.7,12.5-21.4,27.9-21.4c8.8,0,17,2.1,22.9,7.8L309,213.5"/>
<path class="white" d="M382.4,279.4c-5.1,1.3-10.4,2-15.7,1.9c-18.6,0-22-8.1-22-26.6v-43.9h-15.6v-9.4h15.6v-23.7l10.5-1.6v25.3h26.1
	v9.4h-26.1v43.4c0,12.8,1,17.8,13,17.8c4.5-0.1,8.9-0.6,13.3-1.6L382.4,279.4"/>
<path class="white" d="M449,231.6c0.2-14.6-3.7-24.3-19.8-24.3c-16.2,0-21.2,10-22.4,24.5L449,231.6 M459.4,269
	c-8.6,8.6-17.7,12.8-30.8,12.8c-10.5,0-18-2.8-23.5-8.1c-6.6-6.5-9.7-16.2-9.7-31.7c0-13.1,2.3-25.9,9.5-34c5.2-5.8,13-9.7,24.3-9.7
	c22.4,0,30.8,14.9,30.8,33.2c0,2.9-0.2,5.8-0.5,8.8l-53.1,0.3c0,19.3,3.4,31.9,22.4,31.9c9.2,0.2,18.1-3.5,24.5-10.2L459.4,269z"/>
<path class="white" d="M530.8,280.2v-20.1c-3.6,13.6-13.6,21.9-27.5,21.9c-14.7,0-22.8-9.2-22.8-25.8V200H491v54.3
	c0,10.4,3.1,18.3,14.1,18.3c13.3,0,25.3-12,25.3-44.1V200h10.5v80.2H530.8"/>
<path class="white" d="M615.3,231.6c0.2-14.6-3.7-24.3-19.8-24.3c-16.2,0-21.2,10-22.4,24.5L615.3,231.6 M625.7,269
	c-8.6,8.6-17.7,12.8-30.8,12.8c-10.5,0-18-2.8-23.5-8.1c-6.6-6.5-9.7-16.2-9.7-31.7c0-13.1,2.3-25.9,9.6-34c5.2-5.8,13-9.7,24.3-9.7
	c22.4,0,30.8,14.9,30.8,33.2c0,2.9-0.2,5.8-0.5,8.8l-53.1,0.3c0,19.3,3.4,31.9,22.3,31.9c9.2,0.2,18.1-3.5,24.5-10.2L625.7,269z"/>
<path class="white" d="M657.4,200l-0.2,18.6c4.4-14.3,13.3-20.4,23.5-20.4c3.2,0,6.8,0.6,9.1,2.1l-3.2,9.7c-1.5-0.8-4.7-1.3-7-1.3
	c-14.7,0-21.9,19.3-21.9,39v32.4h-10.5V200H657.4"/>
<path class="white" d="M99,97.7L70.6,69.4L49.4,90.6l51.6,51.6l99-118.8L177,4.2L99,97.7 M190.7,58c23.2,50.1,1.4,109.5-48.7,132.8
	C91.9,213.9,32.5,192.1,9.3,142S7.9,32.5,58,9.3c29.5-13.6,63.7-12.1,91.9,4l-19.6,23.6c-34.9-16.7-76.7-2-93.5,32.9
	s-2,76.8,32.9,93.5s76.7,2,93.5-32.9c6.8-14.2,8.6-30.2,5.2-45.5L190.7,58z"/>
</svg>
