<?xml version="1.0" encoding="UTF-8" standalone="no"?>
<!DOCTYPE svg PUBLIC "-//W3C//DTD SVG 1.1//EN" "http://www.w3.org/Graphics/SVG/1.1/DTD/svg11.dtd">
<svg width="100%" height="100%" viewBox="0 0 5079 2717" version="1.1" xmlns="http://www.w3.org/2000/svg" xmlns:xlink="http://www.w3.org/1999/xlink" xml:space="preserve" xmlns:serif="http://www.serif.com/" style="fill-rule:evenodd;clip-rule:evenodd;stroke-linejoin:round;stroke-miterlimit:1.5;">
    <g transform="matrix(1,0,0,1,-5669,-9921)">
        <g id="ivory-tower" serif:id="ivory tower" transform="matrix(1.00113,0,0,1,185.803,9921)">
            <rect x="5477" y="0" width="5073" height="2716.53" style="fill:none;"/>
            <g id="base-effort" serif:id="base effort" transform="matrix(0.975044,0,0,1,144.884,0)">
                <g id="base-effort1" serif:id="base effort" transform="matrix(4.77784,0,0,1.31744,-28551.9,-971.093)">
                    <rect x="7191" y="2133" width="955" height="491.291" style="fill:rgb(50,50,50);"/>
                </g>
                <g transform="matrix(1.02444,0,0,1,7925.71,1773.88)">
                    <text id="base-effort2" serif:id="base effort" x="707.756px" y="419.043px" style="font-family:'Inter-Bold', 'Inter';font-weight:700;font-size:83.333px;fill:white;">base eff<tspan x="1037.48px 1088.62px 1124.95px " y="419.043px 419.043px 419.043px ">ort</tspan></text>
                </g>
            </g>
            <g id="dying-virtuously-base-effort" serif:id="dying virtuously base effort" transform="matrix(0.975044,0,0,1,144.884,0)">
                <g id="base-effort3" serif:id="base effort" transform="matrix(4.77784,0,0,1.71145,-28551.9,-2005.09)">
                    <rect x="7191" y="2133" width="955" height="491.291" style="fill:rgb(50,50,50);"/>
                </g>
                <g transform="matrix(1.02444,0,0,1,7925.71,1514.16)">
                    <g id="base-effort4" serif:id="base effort">
                        <text x="707.756px" y="368.013px" style="font-family:'Inter-Regular', 'Inter';font-size:83.333px;fill:white;">base eff<tspan x="1028.78px 1078.49px 1112.35px " y="368.013px 368.013px 368.013px ">ort</tspan></text>
                        <text x="707.756px" y="468.013px" style="font-family:'Inter-Bold', 'Inter';font-weight:700;font-size:83.333px;fill:white;">+ r<tspan x="815.651px 865.456px 895.936px " y="468.013px 468.013px 468.013px ">efa</tspan>ct<tspan x="1025.14px " y="468.013px ">o</tspan>rings</text>
                        <text x="707.756px" y="568.013px" style="font-family:'Inter-Bold', 'Inter';font-weight:700;font-size:83.333px;fill:white;">+ mor<tspan x="942.782px " y="568.013px ">e</tspan>/bett<tspan x="1192.1px " y="568.013px ">e</tspan>r t<tspan x="1327.19px " y="568.013px ">e</tspan>s</text>
                        <text x="1423.81px" y="568.013px" style="font-family:'Inter-Bold', 'Inter';font-weight:700;font-size:83.333px;fill:white;">t</text>
                        <text x="1452.23px" y="568.013px" style="font-family:'Inter-Bold', 'Inter';font-weight:700;font-size:83.333px;fill:white;">s</text>
                        <text x="707.756px" y="668.013px" style="font-family:'Inter-Bold', 'Inter';font-weight:700;font-size:83.333px;fill:white;">+ documentation</text>
                    </g>
                </g>
            </g>
            <g id="dying-virtuously-base-effort1" serif:id="dying virtuously base effort" transform="matrix(0.975044,0,0,1.45616,144.884,-1134.12)">
                <g id="base-effort5" serif:id="base effort" transform="matrix(4.77784,0,0,1.71145,-28551.9,-2005.09)">
                    <rect x="7191" y="2133" width="955" height="491.291" style="fill:rgb(50,50,50);"/>
                </g>
                <g transform="matrix(1.02444,0,0,0.686739,7925.71,1736.44)">
                    <g id="base-effort6" serif:id="base effort">
                        <text x="707.756px" y="400.26px" style="font-family:'Inter-Regular', 'Inter';font-size:83.333px;fill:white;">base eff<tspan x="1028.78px 1078.49px 1112.35px " y="400.26px 400.26px 400.26px ">ort</tspan></text>
                        <text x="707.756px" y="500.26px" style="font-family:'Inter-Regular', 'Inter';font-size:83.333px;fill:white;">+ r<tspan x="815.71px 864.243px 893.007px " y="500.26px 500.26px 500.26px ">efa</tspan>ct<tspan x="1016.35px " y="500.26px ">o</tspan>rings</text>
                        <text x="707.756px" y="600.26px" style="font-family:'Inter-Regular', 'Inter';font-size:83.333px;fill:white;">+ mor<tspan x="937.869px " y="600.26px ">e</tspan>/bett<tspan x="1176.51px " y="600.26px ">e</tspan>r t<tspan x="1309.32px " y="600.26px ">e</tspan>s</text>
                        <text x="1401.41px" y="600.26px" style="font-family:'Inter-Regular', 'Inter';font-size:83.333px;fill:white;">t</text>
                        <text x="1427.55px" y="600.26px" style="font-family:'Inter-Regular', 'Inter';font-size:83.333px;fill:white;">s</text>
                        <text x="707.756px" y="700.26px" style="font-family:'Inter-Regular', 'Inter';font-size:83.333px;fill:white;">+ documentation</text>
                        <text x="707.756px" y="800.26px" style="font-family:'Inter-Bold', 'Inter';font-weight:700;font-size:83.333px;fill:white;">+ additional unnecessar<tspan x="1690.44px " y="800.26px ">y</tspan> eff<tspan x="1871.08px 1922.22px 1958.56px " y="800.26px 800.26px 800.26px ">ort</tspan></text>
                    </g>
                </g>
            </g>
            <g id="system-complexity" serif:id="system complexity" transform="matrix(0.975044,0,0,1,144.884,0)">
                <g transform="matrix(0.99887,0,0,1,6.19028,0)">
                    <path d="M5805.9,2486.24L5805.9,1261.88C7084.41,1260.7 8984.53,1222.22 10373.9,1039.75L10373.9,2486.24L5805.9,2486.24Z" style="fill:rgb(50,50,50);"/>
                </g>
                <g transform="matrix(1.02444,0,0,1,7925.71,1382.19)">
                    <g id="base-effort7" serif:id="base effort">
                        <text x="707.756px" y="391.175px" style="font-family:'Inter-Regular', 'Inter';font-size:83.333px;fill:white;">base eff<tspan x="1028.78px 1078.49px 1112.35px " y="391.175px 391.175px 391.175px ">ort</tspan></text>
                        <text x="707.756px" y="491.175px" style="font-family:'Inter-Regular', 'Inter';font-size:83.333px;fill:white;">+ r<tspan x="815.71px 864.243px 893.007px " y="491.175px 491.175px 491.175px ">efa</tspan>ct<tspan x="1016.35px " y="491.175px ">o</tspan>rings</text>
                        <text x="707.756px" y="591.175px" style="font-family:'Inter-Regular', 'Inter';font-size:83.333px;fill:white;">+ mor<tspan x="937.869px " y="591.175px ">e</tspan>/bett<tspan x="1176.51px " y="591.175px ">e</tspan>r t<tspan x="1309.32px " y="591.175px ">e</tspan>s</text>
                        <text x="1401.41px" y="591.175px" style="font-family:'Inter-Regular', 'Inter';font-size:83.333px;fill:white;">t</text>
                        <text x="1427.55px" y="591.175px" style="font-family:'Inter-Regular', 'Inter';font-size:83.333px;fill:white;">s</text>
                        <text x="707.756px" y="691.175px" style="font-family:'Inter-Regular', 'Inter';font-size:83.333px;fill:white;">+ documentation</text>
                        <text x="707.756px" y="791.175px" style="font-family:'Inter-Regular', 'Inter';font-size:83.333px;fill:white;">+ additional unnecessar<tspan x="1651.17px " y="791.175px ">y</tspan> eff<tspan x="1827.78px 1877.5px 1911.35px " y="791.175px 791.175px 791.175px ">ort</tspan></text>
                        <text x="707.756px" y="891.175px" style="font-family:'Inter-Bold', 'Inter';font-weight:700;font-size:83.333px;fill:white;">+ syst<tspan x="958.081px " y="891.175px ">e</tspan>m comple<tspan x="1403.69px " y="891.175px ">x</tspan>ity</text>
                    </g>
                </g>
            </g>
            <g id="tactical-effort" serif:id="tactical effort">
                <g id="tactical-effort1" serif:id="tactical effort" transform="matrix(0.973942,0,0,1,150.92,0)">
                    <g transform="matrix(1.02559,-0,-0,1,5468.58,-0)">
                        <path d="M4733.43,245.833L4782.9,207L4784.29,269.874L4733.43,245.833Z" style="fill:rgb(255,102,0);"/>
                        <path d="M328.903,1839C2570.51,1838.82 4173.11,1463.82 4763.67,247.683" style="fill:none;stroke:rgb(255,102,0);stroke-width:18.75px;"/>
                    </g>
                </g>
                <g transform="matrix(0.99887,0,0,1,8254.45,-100.407)">
                    <g id="description">
                        <text x="707.756px" y="383.043px" style="font-family:'Inter-Regular', 'Inter';font-size:83.333px;fill:rgb(52,52,52);">base eff<tspan x="1028.78px 1078.49px 1112.35px " y="383.043px 383.043px 383.043px ">ort</tspan></text>
                        <text x="707.756px" y="483.043px" style="font-family:'Inter-Regular', 'Inter';font-size:83.333px;fill:rgb(52,52,52);">+ syst<tspan x="949.47px " y="483.043px ">e</tspan>m comple<tspan x="1380.46px " y="483.043px ">x</tspan>ity</text>
                        <text x="707.756px" y="583.043px" style="font-family:'Inter-Regular', 'Inter';font-size:83.333px;fill:rgb(52,52,52);">+ change</text>
                        <text x="1100.39px" y="583.043px" style="font-family:'Inter-Regular', 'Inter';font-size:83.333px;fill:rgb(52,52,52);">a</text>
                        <text x="1144.89px" y="583.043px" style="font-family:'Inter-Regular', 'Inter';font-size:83.333px;fill:rgb(52,52,52);">mplification</text>
                        <text x="707.756px" y="683.043px" style="font-family:'Inter-Regular', 'Inter';font-size:83.333px;fill:rgb(52,52,52);">+ mental load</text>
                        <text x="707.756px" y="783.043px" style="font-family:'Inter-Regular', 'Inter';font-size:83.333px;fill:rgb(52,52,52);">+ unkno<tspan x="1025.58px " y="783.043px ">w</tspan>n unkno<tspan x="1404.96px " y="783.043px ">w</tspan>ns</text>
                    </g>
                </g>
            </g>
            <g id="additional-strategic-effort" serif:id="additional strategic effort" transform="matrix(1,0,0,1,0,-224.534)">
                <g transform="matrix(0.99887,0,0,1,5609.44,-103.955)">
                    <g transform="matrix(1,-0,-0,1,-132.588,328.489)">
                        <path d="M1208.83,1463.38L1158.59,1530.51L1135.02,1450.04L1208.83,1463.38Z" style="fill:rgb(255,102,0);"/>
                        <path d="M1247.67,1037.61C1221.53,1182.23 1195.39,1326.85 1169.26,1471.47" style="fill:none;stroke:rgb(255,102,0);stroke-width:25px;"/>
                    </g>
                </g>
                <g transform="matrix(0.99887,0,0,1,5466.56,816.817)">
                    <text id="additional-strategic-effort1" serif:id="additional strategic effort" x="929.329px" y="406.67px" style="font-family:'Inter-Bold', 'Inter';font-weight:700;font-size:83.333px;fill:rgb(51,51,51);">additional eff<tspan x="1467.06px 1518.2px 1554.54px " y="406.67px 406.67px 406.67px ">ort</tspan></text>
                </g>
            </g>
            <g id="additional-tactical-effort" serif:id="additional tactical effort" transform="matrix(1,0,0,0.925305,1910.29,-155.773)">
                <g transform="matrix(0.99887,0,0,1,5609.44,-103.955)">
                    <g transform="matrix(1,-0,-0,1.08072,-2045.04,272.302)">
                        <path d="M4490.11,805.851L4569.04,834.168L4499.03,880.319L4490.11,805.851Z" style="fill:rgb(255,102,0);"/>
                        <path d="M3710.48,936.977C3976.81,905.085 4243.14,873.194 4509.46,841.302" style="fill:none;stroke:rgb(255,102,0);stroke-width:25px;"/>
                    </g>
                </g>
                <g transform="matrix(0.99887,0,0,1.08072,5530.49,779.779)">
                    <text id="additional-strategic-effort2" serif:id="additional strategic effort" x="735.323px" y="401.519px" style="font-family:'Inter-Bold', 'Inter';font-weight:700;font-size:83.333px;fill:rgb(51,51,51);">additional tactical eff<tspan x="1597.07px 1648.2px 1684.54px " y="401.519px 401.519px 401.519px ">ort</tspan></text>
                </g>
            </g>
            <g id="Coordinate-System" transform="matrix(0.99887,0,0,1,5609.44,-103.955)">
                <g transform="matrix(6.12709e-17,-1,1,4.82939e-17,-258.157,1770.02)">
                    <text x="895.438px" y="377.941px" style="font-family:'Inter-Regular', 'Inter';font-size:83.333px;fill:rgb(50,50,50);stroke:rgb(150,150,150);stroke-width:1px;stroke-miterlimit:2;">eff<tspan x="1002.21px 1051.92px 1085.78px " y="377.941px 377.941px 377.941px ">ort</tspan> per f<tspan x="1321.46px " y="377.941px ">e</tspan>atur<tspan x="1525.29px " y="377.941px ">e</tspan></text>
                </g>
                <g transform="matrix(1,0,0,1,3731.83,2348.71)">
                    <text x="861.437px" y="373.775px" style="font-family:'Inter-Regular', 'Inter';font-size:83.333px;fill:rgb(50,50,50);stroke:rgb(150,150,150);stroke-width:1px;stroke-miterlimit:2;">time</text>
                </g>
                <g transform="matrix(1.14143,0,0,1.40411,-429.188,-834.414)">
                    <g transform="matrix(0.876095,-0,-0,0.712197,259.85,668.304)">
                        <path d="M366.403,167.245L328.903,92.245L291.403,167.245L366.403,167.245Z" style="fill:rgb(150,150,150);"/>
                        <path d="M4821.9,2448.74L4896.9,2486.24L4821.9,2523.74L4821.9,2448.74Z" style="fill:rgb(150,150,150);"/>
                        <path d="M328.903,152.245L328.903,2486.24L4836.9,2486.24" style="fill:none;stroke:rgb(150,150,150);stroke-width:25px;stroke-linecap:round;"/>
                    </g>
                </g>
            </g>
        </g>
    </g>
</svg>
