<?xml version="1.0" encoding="UTF-8" standalone="no"?>
<!DOCTYPE svg PUBLIC "-//W3C//DTD SVG 1.1//EN" "http://www.w3.org/Graphics/SVG/1.1/DTD/svg11.dtd">
<svg width="100%" height="100%" viewBox="0 0 5079 2717" version="1.1" xmlns="http://www.w3.org/2000/svg" xmlns:xlink="http://www.w3.org/1999/xlink" xml:space="preserve" xmlns:serif="http://www.serif.com/" style="fill-rule:evenodd;clip-rule:evenodd;stroke-linejoin:round;stroke-miterlimit:1.5;">
    <g transform="matrix(1,0,0,1,-5669,-3307)">
        <g id="the-problem-will-be-solved-in-the-future" serif:id="the problem will be solved in the future" transform="matrix(1.00113,0,0,1,185.803,3307)">
            <rect x="5477" y="0" width="5073" height="2716.53" style="fill:none;"/>
            <g id="strategic-effort" serif:id="strategic effort" transform="matrix(0.975044,0,0,1,144.884,0)">
                <g transform="matrix(0.99887,0,0,1,6.19028,0)">
                    <path d="M5805.9,2486.24L5805.9,1839C7093.64,1837.81 9148.63,1653.77 10373.9,1423.3L10373.9,2486.24L5805.9,2486.24Z" style="fill:rgb(9,134,208);fill-opacity:0.5;"/>
                </g>
                <g transform="matrix(1.02444,0,0,1,8902,1959.59)">
                    <text x="710.592px" y="390.688px" style="font-family:'Inter-Regular', 'Inter';font-size:83.333px;fill:rgb(54,54,54);">per<tspan x="839.498px " y="390.688px ">c</tspan>eiv<tspan x="999.063px " y="390.688px ">e</tspan>d eff<tspan x="1229.53px 1279.25px 1313.1px " y="390.688px 390.688px 390.688px ">ort</tspan></text>
                </g>
            </g>
            <g id="tactical-effort" serif:id="tactical effort">
                <g id="tactical-effort1" serif:id="tactical effort" transform="matrix(0.973942,0,0,1,150.92,0)">
                    <g transform="matrix(1.02559,-0,-0,1,5468.58,-0)">
                        <path d="M4733.43,245.833L4782.9,207L4784.29,269.874L4733.43,245.833Z" style="fill:rgb(255,102,0);"/>
                        <path d="M328.903,1839C2570.51,1838.82 4173.11,1463.82 4763.67,247.683" style="fill:none;stroke:rgb(255,102,0);stroke-width:18.75px;"/>
                    </g>
                </g>
                <g transform="matrix(0.99887,0,0,1,6.19028,0)">
                    <g id="tactical-effort2" serif:id="tactical effort">
                        <g transform="matrix(0.680132,-0.73309,0.73309,0.680132,2612.63,7459.76)">
                            <text x="9854.64px" y="736.003px" style="font-family:'ArialMT', 'Arial', sans-serif;font-size:83.333px;fill:rgb(57,57,57);">t</text>
                        </g>
                        <g transform="matrix(0.668258,-0.74393,0.74393,0.668258,2739.03,7581.33)">
                            <text x="9870.06px" y="719.533px" style="font-family:'ArialMT', 'Arial', sans-serif;font-size:83.333px;fill:rgb(57,57,57);">a</text>
                        </g>
                        <g transform="matrix(0.652063,-0.758165,0.758165,0.652063,2924.77,7744.72)">
                            <text x="9900.37px" y="685.783px" style="font-family:'ArialMT', 'Arial', sans-serif;font-size:83.333px;fill:rgb(57,57,57);">c</text>
                        </g>
                        <g transform="matrix(0.640527,-0.767936,0.767936,0.640527,3065.85,7858.71)">
                            <text x="9927.12px" y="654.598px" style="font-family:'ArialMT', 'Arial', sans-serif;font-size:83.333px;fill:rgb(57,57,57);">t</text>
                        </g>
                        <g transform="matrix(0.633013,-0.774141,0.774141,0.633013,3155.23,7930.08)">
                            <text x="9941.67px" y="637.143px" style="font-family:'ArialMT', 'Arial', sans-serif;font-size:83.333px;fill:rgb(57,57,57);">i</text>
                        </g>
                        <g transform="matrix(0.621251,-0.783612,0.783612,0.621251,3281.25,8035.44)">
                            <text x="9953.07px" y="623.358px" style="font-family:'ArialMT', 'Arial', sans-serif;font-size:83.333px;fill:rgb(57,57,57);">c</text>
                        </g>
                        <g transform="matrix(0.605051,-0.796186,0.796186,0.605051,3470.1,8178.29)">
                            <text x="9978.45px" y="591.419px" style="font-family:'ArialMT', 'Arial', sans-serif;font-size:83.333px;fill:rgb(57,57,57);">a</text>
                        </g>
                        <g transform="matrix(0.592445,-0.805611,0.805611,0.592445,3630.98,8287.14)">
                            <text x="10006.1px" y="554.906px" style="font-family:'ArialMT', 'Arial', sans-serif;font-size:83.333px;fill:rgb(57,57,57);">l</text>
                        </g>
                        <g transform="matrix(0.570517,-0.821286,0.821286,0.570517,3878.82,8461.75)">
                            <text x="10030px" y="522.21px" style="font-family:'ArialMT', 'Arial', sans-serif;font-size:83.333px;fill:rgb(57,57,57);">e</text>
                        </g>
                        <g transform="matrix(0.555785,-0.831326,0.831326,0.555785,4064.01,8575.05)">
                            <text x="10055.9px" y="484.726px" style="font-family:'ArialMT', 'Arial', sans-serif;font-size:83.333px;fill:rgb(57,57,57);">f</text>
                        </g>
                        <g transform="matrix(0.547035,-0.83711,0.83711,0.547035,4169.3,8639.37)">
                            <text x="10067.7px" y="467.11px" style="font-family:'ArialMT', 'Arial', sans-serif;font-size:83.333px;fill:rgb(57,57,57);">f</text>
                        </g>
                        <g transform="matrix(0.533719,-0.845662,0.845662,0.533719,4320.97,8733.42)">
                            <text x="10080.1px" y="448.385px" style="font-family:'ArialMT', 'Arial', sans-serif;font-size:83.333px;fill:rgb(57,57,57);">o</text>
                        </g>
                        <g transform="matrix(0.517083,-0.855935,0.855935,0.517083,4528.77,8846.58)">
                            <text x="10104.4px" y="409.833px" style="font-family:'ArialMT', 'Arial', sans-serif;font-size:83.333px;fill:rgb(57,57,57);">r</text>
                        </g>
                        <g transform="matrix(0.50773,-0.861516,0.861516,0.50773,4648.1,8907.48)">
                            <text x="10118.5px" y="386.445px" style="font-family:'ArialMT', 'Arial', sans-serif;font-size:83.333px;fill:rgb(57,57,57);">t</text>
                        </g>
                    </g>
                </g>
            </g>
            <g id="developer-count" serif:id="developer count">
                <g id="developer-count1" serif:id="developer count" transform="matrix(0.973942,0,0,1,150.92,249)">
                    <g transform="matrix(1.02559,-0,-0,1,5468.58,-249)">
                        <path d="M4576.47,1015.4L4782.9,978.917L4688.23,1165.95L4576.47,1015.4Z" style="fill:rgb(255,102,0);"/>
                        <path d="M328.903,2088C2145.42,2064.56 3402.92,1977.04 4662.46,1068.32" style="fill:none;stroke:rgb(255,102,0);stroke-width:62.5px;"/>
                    </g>
                </g>
                <g transform="matrix(0.99887,0,0,1,6.19028,249)">
                    <g id="developer-count2" serif:id="developer count">
                        <g transform="matrix(0.911124,-0.412133,0.412133,0.911124,297.085,3916.61)">
                            <text x="9229.52px" y="1269.49px" style="font-family:'Arial-BoldMT', 'Arial', sans-serif;font-weight:700;font-size:125px;fill:rgb(52,52,52);">d</text>
                        </g>
                        <g transform="matrix(0.904512,-0.426448,0.426448,0.904512,359.757,4083.45)">
                            <text x="9298.2px" y="1238.39px" style="font-family:'Arial-BoldMT', 'Arial', sans-serif;font-weight:700;font-size:125px;fill:rgb(52,52,52);">e</text>
                        </g>
                        <g transform="matrix(0.898116,-0.439758,0.439758,0.898116,421.886,4239.38)">
                            <text x="9360.11px" y="1209.2px" style="font-family:'Arial-BoldMT', 'Arial', sans-serif;font-weight:700;font-size:125px;fill:rgb(52,52,52);">v</text>
                        </g>
                        <g transform="matrix(0.891572,-0.452878,0.452878,0.891572,487.606,4394.72)">
                            <text x="9421.68px" y="1179.05px" style="font-family:'Arial-BoldMT', 'Arial', sans-serif;font-weight:700;font-size:125px;fill:rgb(52,52,52);">e</text>
                        </g>
                        <g transform="matrix(0.886486,-0.462755,0.462755,0.886486,545.352,4518.65)">
                            <text x="9483.14px" y="1147.73px" style="font-family:'Arial-BoldMT', 'Arial', sans-serif;font-weight:700;font-size:125px;fill:rgb(52,52,52);">l</text>
                        </g>
                        <g transform="matrix(0.881064,-0.472996,0.472996,0.881064,596.019,4634.45)">
                            <text x="9513.41px" y="1132.07px" style="font-family:'Arial-BoldMT', 'Arial', sans-serif;font-weight:700;font-size:125px;fill:rgb(52,52,52);">o</text>
                        </g>
                        <g transform="matrix(0.873381,-0.487037,0.487037,0.873381,678.925,4804.5)">
                            <text x="9579.69px" y="1096.51px" style="font-family:'Arial-BoldMT', 'Arial', sans-serif;font-weight:700;font-size:125px;fill:rgb(52,52,52);">p</text>
                        </g>
                        <g transform="matrix(0.866342,-0.499451,0.499451,0.866342,759.921,4959.15)">
                            <text x="9645.6px" y="1059.75px" style="font-family:'Arial-BoldMT', 'Arial', sans-serif;font-weight:700;font-size:125px;fill:rgb(52,52,52);">e</text>
                        </g>
                        <g transform="matrix(0.85984,-0.510563,0.510563,0.85984,836.791,5098.85)">
                            <text x="9705.24px" y="1025.33px" style="font-family:'Arial-BoldMT', 'Arial', sans-serif;font-weight:700;font-size:125px;fill:rgb(52,52,52);">r</text>
                        </g>
                        <g transform="matrix(0.850769,-0.525539,0.525539,0.850769,942.109,5284.29)">
                            <text x="9775.79px" y="983.255px" style="font-family:'Arial-BoldMT', 'Arial', sans-serif;font-weight:700;font-size:125px;fill:rgb(52,52,52);">c</text>
                        </g>
                        <g transform="matrix(0.843463,-0.537187,0.537187,0.843463,1030.6,5431.1)">
                            <text x="9834.24px" y="947.192px" style="font-family:'Arial-BoldMT', 'Arial', sans-serif;font-weight:700;font-size:125px;fill:rgb(52,52,52);">o</text>
                        </g>
                        <g transform="matrix(0.835795,-0.549042,0.549042,0.835795,1127.49,5583.24)">
                            <text x="9897.9px" y="906.654px" style="font-family:'Arial-BoldMT', 'Arial', sans-serif;font-weight:700;font-size:125px;fill:rgb(52,52,52);">u</text>
                        </g>
                        <g transform="matrix(0.828106,-0.560572,0.560572,0.828106,1227.22,5732.57)">
                            <text x="9960.98px" y="865.223px" style="font-family:'Arial-BoldMT', 'Arial', sans-serif;font-weight:700;font-size:125px;fill:rgb(52,52,52);">n</text>
                        </g>
                        <g transform="matrix(0.822222,-0.569167,0.569167,0.822222,1313.78,5851.42)">
                            <text x="10023.7px" y="822.641px" style="font-family:'Arial-BoldMT', 'Arial', sans-serif;font-weight:700;font-size:125px;fill:rgb(52,52,52);">t</text>
                        </g>
                    </g>
                </g>
            </g>
            <g id="Coordinate-System" transform="matrix(0.99887,0,0,1,5609.44,-103.955)">
                <g transform="matrix(6.12709e-17,-1,1,4.82939e-17,-258.157,1770.02)">
                    <text x="895.438px" y="377.941px" style="font-family:'Inter-Regular', 'Inter';font-size:83.333px;fill:rgb(50,50,50);stroke:rgb(150,150,150);stroke-width:1px;stroke-miterlimit:2;">eff<tspan x="1002.21px 1051.92px 1085.78px " y="377.941px 377.941px 377.941px ">ort</tspan> per f<tspan x="1321.46px " y="377.941px ">e</tspan>atur<tspan x="1525.29px " y="377.941px ">e</tspan></text>
                </g>
                <g transform="matrix(1,0,0,1,3731.83,2348.71)">
                    <text x="861.437px" y="373.775px" style="font-family:'Inter-Regular', 'Inter';font-size:83.333px;fill:rgb(50,50,50);stroke:rgb(150,150,150);stroke-width:1px;stroke-miterlimit:2;">time</text>
                </g>
                <g transform="matrix(1.14143,0,0,1.40411,-429.188,-834.414)">
                    <g transform="matrix(0.876095,-0,-0,0.712197,259.85,668.304)">
                        <path d="M366.403,167.245L328.903,92.245L291.403,167.245L366.403,167.245Z" style="fill:rgb(150,150,150);"/>
                        <path d="M4821.9,2448.74L4896.9,2486.24L4821.9,2523.74L4821.9,2448.74Z" style="fill:rgb(150,150,150);"/>
                        <path d="M328.903,152.245L328.903,2486.24L4836.9,2486.24" style="fill:none;stroke:rgb(150,150,150);stroke-width:25px;stroke-linecap:round;"/>
                    </g>
                </g>
            </g>
        </g>
    </g>
</svg>
