<?xml version="1.0" encoding="UTF-8" standalone="no"?>
<!DOCTYPE svg PUBLIC "-//W3C//DTD SVG 1.1//EN" "http://www.w3.org/Graphics/SVG/1.1/DTD/svg11.dtd">
<svg width="100%" height="100%" viewBox="0 0 5079 2717" version="1.1" xmlns="http://www.w3.org/2000/svg" xmlns:xlink="http://www.w3.org/1999/xlink" xml:space="preserve" xmlns:serif="http://www.serif.com/" style="fill-rule:evenodd;clip-rule:evenodd;stroke-linejoin:round;stroke-miterlimit:1.5;">
    <g id="motivation" transform="matrix(1.02381,0,0,0.974927,0,0)">
        <rect x="0" y="0" width="4960.63" height="2786.4" style="fill:none;"/>
        <g id="tatsächliche-Entwicklung" serif:id="tatsächliche Entwicklung" transform="matrix(0.976744,0,0,1.02572,129.504,-106.628)">
            <path d="M196.315,429C1864.12,432.272 3232.53,1853.78 4764.32,2128" style="fill:none;stroke:url(#_Linear1);stroke-width:25px;"/>
        </g>
        <g id="ideale-Entwicklung" serif:id="ideale Entwicklung" transform="matrix(0.976744,0,0,1.02572,0,0)">
            <path d="M328.903,325.045L4896.9,325.045" style="fill:none;stroke:rgb(9,134,208);stroke-width:18.75px;"/>
        </g>
        <g id="Coordinate-System" transform="matrix(0.976744,0,0,1.02572,129.504,-106.628)">
            <g transform="matrix(6.13352e-17,-1,1,5.63811e-17,-258.157,1228.68)">
                <text x="726.494px" y="373.775px" style="font-family:'Inter-Regular', 'Inter';font-size:83.333px;fill:rgb(50,50,50);stroke:rgb(150,150,150);stroke-width:1px;stroke-miterlimit:2;">Qualität</text>
            </g>
            <g transform="matrix(1,0,0,1,3731.83,2348.71)">
                <text x="881.797px" y="373.775px" style="font-family:'Inter-Regular', 'Inter';font-size:83.333px;fill:rgb(50,50,50);stroke:rgb(150,150,150);stroke-width:1px;stroke-miterlimit:2;">Zeit</text>
            </g>
            <g transform="matrix(1.14143,0,0,1.40411,-429.188,-834.414)">
                <g transform="matrix(0.876095,-0,-0,0.712197,259.85,668.304)">
                    <path d="M366.403,167.245L328.903,92.245L291.403,167.245L366.403,167.245Z" style="fill:rgb(150,150,150);"/>
                    <path d="M4821.9,2448.74L4896.9,2486.24L4821.9,2523.74L4821.9,2448.74Z" style="fill:rgb(150,150,150);"/>
                    <path d="M328.903,152.245L328.903,2486.24L4836.9,2486.24" style="fill:none;stroke:rgb(150,150,150);stroke-width:25px;stroke-linecap:round;"/>
                </g>
            </g>
        </g>
        <g id="Wie-Pfad-folgen-" serif:id="Wie Pfad folgen?" transform="matrix(0.976744,0,0,1.02572,129.504,-106.628)">
            <g transform="matrix(1,0,0,1,0,-163)">
                <g transform="matrix(0.907968,0.41904,-0.41904,0.907968,514.289,-714.59)">
                    <text x="1883.98px" y="813.533px" style="font-family:'Inter-Regular', 'Inter';font-size:125px;">W</text>
                </g>
                <g transform="matrix(0.903834,0.427884,-0.427884,0.903834,561.155,-769.366)">
                    <text x="1992.19px" y="863.724px" style="font-family:'Inter-Regular', 'Inter';font-size:125px;">i</text>
                </g>
                <g transform="matrix(0.901123,0.433564,-0.433564,0.901123,579.665,-788.819)">
                    <text x="2019.27px" y="876.468px" style="font-family:'Inter-Regular', 'Inter';font-size:125px;">e</text>
                </g>
                <g transform="matrix(0.896404,0.443237,-0.443237,0.896404,628.822,-842.693)">
                    <text x="2117.16px" y="923.869px" style="font-family:'Inter-Regular', 'Inter';font-size:125px;">f</text>
                </g>
                <g transform="matrix(0.89384,0.448385,-0.448385,0.89384,651.477,-866.318)">
                    <text x="2155.27px" y="942.659px" style="font-family:'Inter-Regular', 'Inter';font-size:125px;">o</text>
                </g>
                <g transform="matrix(0.891627,0.452771,-0.452771,0.891627,682.868,-900.344)">
                    <text x="2222.2px" y="976.302px" style="font-family:'Inter-Regular', 'Inter';font-size:125px;">l</text>
                </g>
                <g transform="matrix(0.889611,0.456718,-0.456718,0.889611,700.358,-917.899)">
                    <text x="2249.02px" y="989.87px" style="font-family:'Inter-Regular', 'Inter';font-size:125px;">g</text>
                </g>
                <g transform="matrix(0.886957,0.461853,-0.461853,0.886957,735.242,-954.29)">
                    <text x="2317.05px" y="1024.82px" style="font-family:'Inter-Regular', 'Inter';font-size:125px;">e</text>
                </g>
                <g transform="matrix(0.884432,0.46667,-0.46667,0.884432,780.532,-1001.86)">
                    <text x="2413.04px" y="1074.98px" style="font-family:'Inter-Regular', 'Inter';font-size:125px;">i</text>
                </g>
                <g transform="matrix(0.88322,0.468959,-0.468959,0.88322,795.529,-1016.85)">
                    <text x="2439.47px" y="1088.9px" style="font-family:'Inter-Regular', 'Inter';font-size:125px;">c</text>
                </g>
                <g transform="matrix(0.881814,0.471597,-0.471597,0.881814,824.578,-1046.98)">
                    <text x="2501.18px" y="1121.67px" style="font-family:'Inter-Regular', 'Inter';font-size:125px;">h</text>
                </g>
                <g transform="matrix(0.880407,0.47422,-0.47422,0.880407,867.046,-1091.49)">
                    <text x="2597.55px" y="1173.29px" style="font-family:'Inter-Regular', 'Inter';font-size:125px;">d</text>
                </g>
                <g transform="matrix(0.880024,0.47493,-0.47493,0.880024,894.551,-1120.92)">
                    <text x="2665.87px" y="1210.1px" style="font-family:'Inter-Regular', 'Inter';font-size:125px;">i</text>
                </g>
                <g transform="matrix(0.879873,0.475208,-0.475208,0.879873,905.064,-1132.13)">
                    <text x="2691.82px" y="1224.11px" style="font-family:'Inter-Regular', 'Inter';font-size:125px;">e</text>
                </g>
                <g transform="matrix(0.879964,0.475041,-0.475041,0.879964,928.747,-1158.07)">
                    <text x="2755.9px" y="1258.71px" style="font-family:'Inter-Regular', 'Inter';font-size:125px;">s</text>
                </g>
                <g transform="matrix(0.880379,0.474271,-0.474271,0.880379,948.265,-1180.06)">
                    <text x="2813.47px" y="1289.8px" style="font-family:'Inter-Regular', 'Inter';font-size:125px;">e</text>
                </g>
                <g transform="matrix(0.881389,0.472391,-0.472391,0.881389,966.853,-1202.17)">
                    <text x="2877.37px" y="1324.25px" style="font-family:'Inter-Regular', 'Inter';font-size:125px;">m</text>
                </g>
                <g transform="matrix(0.883703,0.468048,-0.468048,0.883703,1000.84,-1244.08)">
                    <text x="3003.88px" y="1391.95px" style="font-family:'Inter-Regular', 'Inter';font-size:125px;">P</text>
                </g>
                <g transform="matrix(0.885078,0.465443,-0.465443,0.885078,1018.34,-1266.45)">
                    <text x="3073.78px" y="1428.95px" style="font-family:'Inter-Regular', 'Inter';font-size:125px;">f</text>
                </g>
                <g transform="matrix(0.886434,0.462855,-0.462855,0.886434,1024.08,-1275.78)">
                    <text x="3111.87px" y="1449.01px" style="font-family:'Inter-Regular', 'Inter';font-size:125px;">a</text>
                </g>
                <g transform="matrix(0.888484,0.458908,-0.458908,0.888484,1033.82,-1291.39)">
                    <text x="3174.05px" y="1481.48px" style="font-family:'Inter-Regular', 'Inter';font-size:125px;">d</text>
                </g>
                <g transform="matrix(0.890702,0.454588,-0.454588,0.890702,1044.04,-1308.35)">
                    <text x="3242.84px" y="1516.99px" style="font-family:'Inter-Regular', 'Inter';font-size:125px;">?</text>
                </g>
            </g>
            <g transform="matrix(1,0,0,1,0,-163)">
                <g transform="matrix(1,-0,-0,1,-132.588,266.955)">
                    <path d="M3531.25,1356.47L3581.9,1423.3L3498.05,1423.72L3531.25,1356.47Z" style="fill:rgb(50,50,50);"/>
                    <path d="M1806.95,524.045C2452.28,799.846 2872.52,1071.37 3528.1,1396.74" style="fill:none;stroke:rgb(50,50,50);stroke-width:25px;"/>
                </g>
            </g>
        </g>
        <g id="Books-about-Quality" serif:id="Books about Quality" transform="matrix(0.976744,0,0,1.02572,129.504,-106.628)">
            <g transform="matrix(1,0,0,1,-394.62,870.128)">
                <text x="728.832px" y="428.861px" style="font-family:'Inter-Regular', 'Inter';font-size:125px;fill:rgb(50,50,50);">w<tspan x="828.086px " y="428.861px ">e</tspan>nn ich mein Kno<tspan x="1837.14px " y="428.861px ">w</tspan></text>
                <text x="1938.7px" y="428.861px" style="font-family:'Inter-Regular', 'Inter';font-size:125px;fill:rgb(50,50,50);">-</text>
                <text x="1994.98px" y="428.861px" style="font-family:'Inter-Regular', 'Inter';font-size:125px;fill:rgb(50,50,50);">Ho<tspan x="2159.76px " y="428.861px ">w</tspan></text>
                <text x="882.06px" y="553.861px" style="font-family:'Inter-Regular', 'Inter';font-size:125px;fill:rgb(50,50,50);">zu Softwar<tspan x="1518.78px " y="553.861px ">e</tspan>-Qualität</text>
                <text x="922.809px" y="678.861px" style="font-family:'Inter-Regular', 'Inter';font-size:125px;fill:rgb(50,50,50);">hier genutzt habe...</text>
            </g>
            <g transform="matrix(1,-0,-0,1,-132.588,103.955)">
                <path d="M855.065,524.716L860.588,441.045L924.211,495.665L855.065,524.716Z" style="fill:rgb(9,134,208);"/>
                <path d="M1126.34,1073.58C1045.5,881.174 964.664,688.768 883.828,496.361" style="fill:none;stroke:rgb(9,134,208);stroke-width:25px;"/>
            </g>
        </g>
        <g id="Books-about-Legacy-Code" serif:id="Books about Legacy Code" transform="matrix(0.976744,0,0,1.02572,129.504,-106.628)">
            <g transform="matrix(1,0,0,1,2647.01,424.056)">
                <text x="742.596px" y="473.195px" style="font-family:'Inter-Regular', 'Inter';font-size:125px;fill:rgb(50,50,50);">...um mein Kno<tspan x="1608.72px " y="473.195px ">w</tspan>-Ho<tspan x="1932.58px " y="473.195px ">w</tspan></text>
                <text x="725.639px" y="598.195px" style="font-family:'Inter-Regular', 'Inter';font-size:125px;fill:rgb(50,50,50);">über Legacy-Softwar<tspan x="1978.3px " y="598.195px ">e</tspan></text>
                <text x="865.643px" y="723.195px" style="font-family:'Inter-Regular', 'Inter';font-size:125px;fill:rgb(50,50,50);">nutz<tspan x="1122.57px " y="723.195px ">e</tspan>n zu k<tspan x="1544.27px " y="723.195px ">ö</tspan>nnen</text>
            </g>
            <g transform="matrix(1,0,0,1,3540,160)">
                <g transform="matrix(1,-0,-0,1,-3672.59,-56.045)">
                    <path d="M4375.54,1694.54L4360.59,1777.05L4303.55,1715.58L4375.54,1694.54Z" style="fill:rgb(255,102,0);"/>
                    <path d="M4167.97,1118.17C4226.56,1318.6 4285.16,1519.03 4343.75,1719.46" style="fill:none;stroke:rgb(255,102,0);stroke-width:25px;"/>
                </g>
            </g>
        </g>
    </g>
    <defs>
        <linearGradient id="_Linear1" x1="0" y1="0" x2="1" y2="0" gradientUnits="userSpaceOnUse" gradientTransform="matrix(4173.95,1695,-1695,4173.95,428,426)"><stop offset="0" style="stop-color:rgb(9,134,208);stop-opacity:1"/><stop offset="1" style="stop-color:rgb(255,102,0);stop-opacity:1"/></linearGradient>
    </defs>
</svg>
