<?xml version="1.0" encoding="UTF-8" standalone="no"?>
<!DOCTYPE svg PUBLIC "-//W3C//DTD SVG 1.1//EN" "http://www.w3.org/Graphics/SVG/1.1/DTD/svg11.dtd">
<svg width="100%" height="100%" viewBox="0 0 5079 2717" version="1.1" xmlns="http://www.w3.org/2000/svg" xmlns:xlink="http://www.w3.org/1999/xlink" xml:space="preserve" xmlns:serif="http://www.serif.com/" style="fill-rule:evenodd;clip-rule:evenodd;stroke-linejoin:round;stroke-miterlimit:1.5;">
    <g transform="matrix(1,0,0,1,-5669,-6614)">
        <g id="sweet-spot" transform="matrix(1.00113,0,0,1,185.803,6614)">
            <rect x="5477" y="0" width="5073" height="2716.53" style="fill:none;"/>
            <g id="cumulative-strategic-maintenance" serif:id="cumulative strategic maintenance" transform="matrix(0.901369,0,0,1,802.648,0)">
                <g transform="matrix(1.10817,0,0,1,-650.615,85.8859)">
                    <g id="cumulative-strategic-maintenance1" serif:id="cumulative strategic maintenance">
                        <g transform="matrix(0.560389,0.82823,-0.82823,0.560389,5637.85,-6733.51)">
                            <text x="9161.91px" y="1944.12px" style="font-family:'Inter-Regular', 'Inter';font-size:125px;fill:rgb(52,52,52);">i</text>
                        </g>
                        <g transform="matrix(0.584789,0.811186,-0.811186,0.584789,5408.51,-6627.85)">
                            <text x="9178.57px" y="1969.3px" style="font-family:'Inter-Regular', 'Inter';font-size:125px;fill:rgb(52,52,52);">v</text>
                        </g>
                        <g transform="matrix(0.623332,0.781957,-0.781957,0.623332,5054.1,-6445.42)">
                            <text x="9217.35px" y="2023.41px" style="font-family:'Inter-Regular', 'Inter';font-size:125px;fill:rgb(52,52,52);">o</text>
                        </g>
                        <g transform="matrix(0.663931,0.747794,-0.747794,0.663931,4669.39,-6227.87)">
                            <text x="9263.57px" y="2081.05px" style="font-family:'Inter-Regular', 'Inter';font-size:125px;fill:rgb(52,52,52);">r</text>
                        </g>
                        <g transform="matrix(0.703997,0.710203,-0.710203,0.703997,4254.74,-5974.62)">
                            <text x="9294.86px" y="2116.91px" style="font-family:'Inter-Regular', 'Inter';font-size:125px;fill:rgb(52,52,52);">y</text>
                        </g>
                        <g transform="matrix(0.776558,0.630046,-0.630046,0.776558,3472.26,-5413.92)">
                            <text x="9369.02px" y="2188.46px" style="font-family:'Inter-Regular', 'Inter';font-size:125px;fill:rgb(52,52,52);">t</text>
                        </g>
                        <g transform="matrix(0.825447,0.564479,-0.564479,0.825447,2891.7,-4920.1)">
                            <text x="9401.32px" y="2215.64px" style="font-family:'Inter-Regular', 'Inter';font-size:125px;fill:rgb(52,52,52);">o</text>
                        </g>
                        <g transform="matrix(0.892357,0.45133,-0.45133,0.892357,2035.39,-4024.89)">
                            <text x="9455.57px" y="2254.59px" style="font-family:'Inter-Regular', 'Inter';font-size:125px;fill:rgb(52,52,52);">w</text>
                        </g>
                        <g transform="matrix(0.947731,0.319071,-0.319071,0.947731,1231.23,-2923.48)">
                            <text x="9538.62px" y="2296.21px" style="font-family:'Inter-Regular', 'Inter';font-size:125px;fill:rgb(52,52,52);">e</text>
                        </g>
                        <g transform="matrix(0.977207,0.212287,-0.212287,0.977207,710.92,-1985.88)">
                            <text x="9603.55px" y="2317.75px" style="font-family:'Inter-Regular', 'Inter';font-size:125px;fill:rgb(52,52,52);">r</text>
                        </g>
                    </g>
                </g>
                <g transform="matrix(1.10817,0,0,1,-650.615,85.8859)">
                    <g id="cumulative-strategic-maintenance2" serif:id="cumulative strategic maintenance">
                        <g transform="matrix(0.712995,-0.701169,0.701169,0.712995,1677.93,5312.43)">
                            <text x="7328.24px" y="606.585px" style="font-family:'Inter-Regular', 'Inter';font-size:125px;fill:rgb(52,52,52);">s</text>
                        </g>
                        <g transform="matrix(0.747052,-0.664766,0.664766,0.747052,1489.04,5042.79)">
                            <text x="7370.93px" y="564.745px" style="font-family:'Inter-Regular', 'Inter';font-size:125px;fill:rgb(52,52,52);">t</text>
                        </g>
                        <g transform="matrix(0.778744,-0.627341,0.627341,0.778744,1299.83,4761.7)">
                            <text x="7400.51px" y="538.111px" style="font-family:'Inter-Regular', 'Inter';font-size:125px;fill:rgb(52,52,52);">r</text>
                        </g>
                        <g transform="matrix(0.813908,-0.580994,0.580994,0.813908,1085.84,4413.41)">
                            <text x="7432.42px" y="511.677px" style="font-family:'Inter-Regular', 'Inter';font-size:125px;fill:rgb(52,52,52);">a</text>
                        </g>
                        <g transform="matrix(0.853137,-0.521687,0.521687,0.853137,852.46,3975.14)">
                            <text x="7486.47px" y="473.514px" style="font-family:'Inter-Regular', 'Inter';font-size:125px;fill:rgb(52,52,52);">t</text>
                        </g>
                        <g transform="matrix(0.89055,-0.454885,0.454885,0.89055,617.733,3470.59)">
                            <text x="7520.94px" y="451.614px" style="font-family:'Inter-Regular', 'Inter';font-size:125px;fill:rgb(52,52,52);">e</text>
                        </g>
                        <g transform="matrix(0.932982,-0.359922,0.359922,0.932982,357.309,2757.67)">
                            <text x="7583.76px" y="419.359px" style="font-family:'Inter-Regular', 'Inter';font-size:125px;fill:rgb(52,52,52);">g</text>
                        </g>
                        <g transform="matrix(0.957895,-0.287118,0.287118,0.957895,209.014,2213.47)">
                            <text x="7651.48px" y="394.09px" style="font-family:'Inter-Regular', 'Inter';font-size:125px;fill:rgb(52,52,52);">i</text>
                        </g>
                        <g transform="matrix(0.975562,-0.219724,0.219724,0.975562,102.77,1695.94)">
                            <text x="7675.59px" y="385.964px" style="font-family:'Inter-Regular', 'Inter';font-size:125px;fill:rgb(52,52,52);">c</text>
                        </g>
                        <g transform="matrix(0.997076,-0.0764154,0.0764154,0.997076,-5.29327,594.83)">
                            <text x="7770.14px" y="366.583px" style="font-family:'Inter-Regular', 'Inter';font-size:125px;fill:rgb(52,52,52);">d</text>
                        </g>
                        <g transform="matrix(0.999607,0.0280337,-0.0280337,0.999607,13.2032,-219.794)">
                            <text x="7845.41px" y="360.988px" style="font-family:'Inter-Regular', 'Inter';font-size:125px;fill:rgb(52,52,52);">e</text>
                        </g>
                        <g transform="matrix(0.992542,0.1219,-0.1219,0.992542,103.226,-961.909)">
                            <text x="7913.16px" y="362.696px" style="font-family:'Inter-Regular', 'Inter';font-size:125px;fill:rgb(52,52,52);">v</text>
                        </g>
                        <g transform="matrix(0.975749,0.218892,-0.218892,0.975749,274.496,-1737.19)">
                            <text x="7977.29px" y="370.226px" style="font-family:'Inter-Regular', 'Inter';font-size:125px;fill:rgb(52,52,52);">e</text>
                        </g>
                        <g transform="matrix(0.957741,0.287631,-0.287631,0.957741,450.904,-2297.4)">
                            <text x="8044.01px" y="385.822px" style="font-family:'Inter-Regular', 'Inter';font-size:125px;fill:rgb(52,52,52);">l</text>
                        </g>
                        <g transform="matrix(0.934556,0.355817,-0.355817,0.934556,667.598,-2845.28)">
                            <text x="8068.61px" y="392.206px" style="font-family:'Inter-Regular', 'Inter';font-size:125px;fill:rgb(52,52,52);">o</text>
                        </g>
                        <g transform="matrix(0.889962,0.456035,-0.456035,0.889962,1085.92,-3664.62)">
                            <text x="8136.67px" y="417.911px" style="font-family:'Inter-Regular', 'Inter';font-size:125px;fill:rgb(52,52,52);">p</text>
                        </g>
                        <g transform="matrix(0.828306,0.560275,-0.560275,0.828306,1661.44,-4519.07)">
                            <text x="8204.09px" y="451.288px" style="font-family:'Inter-Regular', 'Inter';font-size:125px;fill:rgb(52,52,52);">m</text>
                        </g>
                        <g transform="matrix(0.76484,0.64422,-0.64422,0.76484,2279.53,-5221.37)">
                            <text x="8291.73px" y="511.706px" style="font-family:'Inter-Regular', 'Inter';font-size:125px;fill:rgb(52,52,52);">e</text>
                        </g>
                        <g transform="matrix(0.717117,0.696953,-0.696953,0.717117,2747.83,-5658.32)">
                            <text x="8344.26px" y="555.815px" style="font-family:'Inter-Regular', 'Inter';font-size:125px;fill:rgb(52,52,52);">n</text>
                        </g>
                        <g transform="matrix(0.682324,0.73105,-0.73105,0.682324,3106.95,-5943.77)">
                            <text x="8392.51px" y="603.042px" style="font-family:'Inter-Regular', 'Inter';font-size:125px;fill:rgb(52,52,52);">t</text>
                        </g>
                    </g>
                </g>
                <g transform="matrix(1.10817,0,0,1,-650.615,85.8859)">
                    <g id="cumulative-strategic-maintenance3" serif:id="cumulative strategic maintenance">
                        <g transform="matrix(0.968255,-0.249964,0.249964,0.968255,-387.969,1596.33)">
                            <text x="6090.89px" y="2325.63px" style="font-family:'Inter-Regular', 'Inter';font-size:125px;fill:rgb(52,52,52);">t</text>
                        </g>
                        <g transform="matrix(0.939274,-0.343169,0.343169,0.939274,-422.375,2244.79)">
                            <text x="6131.56px" y="2315.83px" style="font-family:'Inter-Regular', 'Inter';font-size:125px;fill:rgb(52,52,52);">a</text>
                        </g>
                        <g transform="matrix(0.89184,-0.452351,0.452351,0.89184,-367.587,3049.58)">
                            <text x="6193.24px" y="2293.46px" style="font-family:'Inter-Regular', 'Inter';font-size:125px;fill:rgb(52,52,52);">c</text>
                        </g>
                        <g transform="matrix(0.848337,-0.529456,0.529456,0.848337,-249.755,3653.71)">
                            <text x="6252.69px" y="2262.8px" style="font-family:'Inter-Regular', 'Inter';font-size:125px;fill:rgb(52,52,52);">t</text>
                        </g>
                        <g transform="matrix(0.817076,-0.57653,0.57653,0.817076,-140.235,4036.13)">
                            <text x="6290.31px" y="2239.06px" style="font-family:'Inter-Regular', 'Inter';font-size:125px;fill:rgb(52,52,52);">i</text>
                        </g>
                        <g transform="matrix(0.776542,-0.630065,0.630065,0.776542,9.89661,4474.86)">
                            <text x="6313.64px" y="2223.48px" style="font-family:'Inter-Regular', 'Inter';font-size:125px;fill:rgb(52,52,52);">c</text>
                        </g>
                        <g transform="matrix(0.72383,-0.689978,0.689978,0.72383,253.12,4994.64)">
                            <text x="6365.82px" y="2181.13px" style="font-family:'Inter-Regular', 'Inter';font-size:125px;fill:rgb(52,52,52);">a</text>
                        </g>
                        <g transform="matrix(0.686015,-0.727588,0.727588,0.686015,462.713,5337.66)">
                            <text x="6415.75px" y="2132.72px" style="font-family:'Inter-Regular', 'Inter';font-size:125px;fill:rgb(52,52,52);">l</text>
                        </g>
                        <g transform="matrix(0.628498,-0.777811,0.777811,0.628498,778.296,5799.18)">
                            <text x="6460px" y="2084.83px" style="font-family:'Inter-Regular', 'Inter';font-size:125px;fill:rgb(52,52,52);">d</text>
                        </g>
                        <g transform="matrix(0.585498,-0.810674,0.810674,0.585498,1055.93,6115.31)">
                            <text x="6508.06px" y="2025.08px" style="font-family:'Inter-Regular', 'Inter';font-size:125px;fill:rgb(52,52,52);">e</text>
                        </g>
                        <g transform="matrix(0.552479,-0.833527,0.833527,0.552479,1290.93,6339.74)">
                            <text x="6549.48px" y="1967.67px" style="font-family:'Inter-Regular', 'Inter';font-size:125px;fill:rgb(52,52,52);">v</text>
                        </g>
                        <g transform="matrix(0.524556,-0.851376,0.851376,0.524556,1504.19,6516.6)">
                            <text x="6586.72px" y="1911.53px" style="font-family:'Inter-Regular', 'Inter';font-size:125px;fill:rgb(52,52,52);">e</text>
                        </g>
                        <g transform="matrix(0.506293,-0.862361,0.862361,0.506293,1677.12,6625.99)">
                            <text x="6625.39px" y="1848.27px" style="font-family:'Inter-Regular', 'Inter';font-size:125px;fill:rgb(52,52,52);">l</text>
                        </g>
                        <g transform="matrix(0.490163,-0.871631,0.871631,0.490163,1798.15,6717.45)">
                            <text x="6641.24px" y="1821.64px" style="font-family:'Inter-Regular', 'Inter';font-size:125px;fill:rgb(52,52,52);">o</text>
                        </g>
                        <g transform="matrix(0.470621,-0.882335,0.882335,0.470621,1986.23,6821.93)">
                            <text x="6678.29px" y="1755.71px" style="font-family:'Inter-Regular', 'Inter';font-size:125px;fill:rgb(52,52,52);">p</text>
                        </g>
                        <g transform="matrix(0.453056,-0.891482,0.891482,0.453056,2168.32,6909.09)">
                            <text x="6714.84px" y="1687.43px" style="font-family:'Inter-Regular', 'Inter';font-size:125px;fill:rgb(52,52,52);">m</text>
                        </g>
                        <g transform="matrix(0.440806,-0.897602,0.897602,0.440806,2356.3,6960.55)">
                            <text x="6764.59px" y="1589.14px" style="font-family:'Inter-Regular', 'Inter';font-size:125px;fill:rgb(52,52,52);">e</text>
                        </g>
                        <g transform="matrix(0.434449,-0.900697,0.900697,0.434449,2473.78,6983.25)">
                            <text x="6797.65px" y="1521.76px" style="font-family:'Inter-Regular', 'Inter';font-size:125px;fill:rgb(52,52,52);">n</text>
                        </g>
                        <g transform="matrix(0.431566,-0.902082,0.902082,0.431566,2571.1,6987.97)">
                            <text x="6830.35px" y="1453.87px" style="font-family:'Inter-Regular', 'Inter';font-size:125px;fill:rgb(52,52,52);">t</text>
                        </g>
                    </g>
                </g>
                <g id="cumulative-strategic-maintenance4" serif:id="cumulative strategic maintenance" transform="matrix(0.973942,0,0,1.39538,150.92,-81.8446)">
                    <path d="M5971.44,1840.42C7055.25,1837.76 7049.15,425.043 8120.76,424.222C9197.74,423.396 9200.42,1839.93 10270.1,1839" style="fill:none;stroke:rgb(9,134,208);stroke-width:16.08px;"/>
                </g>
            </g>
            <g id="Coordinate-System" transform="matrix(0.99887,0,0,1,5609.44,-103.955)">
                <g transform="matrix(6.12614e-17,-1,1,4.40591e-17,-258.157,2053.49)">
                    <text x="774.433px" y="377.941px" style="font-family:'Inter-Regular', 'Inter';font-size:83.333px;fill:rgb(50,50,50);stroke:rgb(150,150,150);stroke-width:1px;stroke-miterlimit:2;">mid-t<tspan x="986.555px " y="377.941px ">o</tspan>-long t<tspan x="1296.92px " y="377.941px ">e</tspan>rm efficiency</text>
                </g>
                <g transform="matrix(1,0,0,1,3281.83,2348.71)">
                    <text x="899.151px" y="373.775px" style="font-family:'Inter-Regular', 'Inter';font-size:83.333px;fill:rgb(50,50,50);stroke:rgb(150,150,150);stroke-width:1px;stroke-miterlimit:2;">up-fr<tspan x="1096.36px " y="373.775px ">o</tspan>nt<tspan x="1223.49px " y="373.775px ">-</tspan>eff<tspan x="1368.61px 1418.33px 1452.18px " y="373.775px 373.775px 373.775px ">ort</tspan></text>
                </g>
                <g transform="matrix(1.14143,0,0,1.40411,-429.188,-834.414)">
                    <g transform="matrix(0.876095,-0,-0,0.712197,259.85,668.304)">
                        <path d="M366.403,167.245L328.903,92.245L291.403,167.245L366.403,167.245Z" style="fill:rgb(150,150,150);"/>
                        <path d="M4821.9,2448.74L4896.9,2486.24L4821.9,2523.74L4821.9,2448.74Z" style="fill:rgb(150,150,150);"/>
                        <path d="M328.903,152.245L328.903,2486.24L4836.9,2486.24" style="fill:none;stroke:rgb(150,150,150);stroke-width:25px;stroke-linecap:round;"/>
                    </g>
                </g>
            </g>
        </g>
    </g>
</svg>
