<?xml version="1.0" encoding="UTF-8" standalone="no"?>
<!DOCTYPE svg PUBLIC "-//W3C//DTD SVG 1.1//EN" "http://www.w3.org/Graphics/SVG/1.1/DTD/svg11.dtd">
<svg width="100%" height="100%" viewBox="0 0 5079 2717" version="1.1" xmlns="http://www.w3.org/2000/svg" xmlns:xlink="http://www.w3.org/1999/xlink" xml:space="preserve" xmlns:serif="http://www.serif.com/" style="fill-rule:evenodd;clip-rule:evenodd;stroke-linejoin:round;stroke-miterlimit:2;">
    <g transform="matrix(1,0,0,1,-9.09495e-13,-3307)">
        <g id="tactical" transform="matrix(1.00113,0,0,1,-5483.2,3307)">
            <rect x="5477" y="0" width="5073" height="2716.53" style="fill:none;"/>
            <g id="short-term-base-effort" serif:id="short term base effort">
                <g id="effort" transform="matrix(0.99887,0,0,1.56517,5219.19,-4911.56)">
                    <rect x="587" y="4313" width="444" height="412.268" style="fill:rgb(255,102,0);"/>
                </g>
                <g transform="matrix(0.99887,0,0,1,5098.57,1713.84)">
                    <g id="base-effort" serif:id="base effort">
                        <text x="830.798px" y="436.429px" style="font-family:'Inter-Bold', 'Inter';font-weight:700;font-size:83.333px;fill:white;">base</text>
                        <text x="813.589px" y="519.762px" style="font-family:'Inter-Bold', 'Inter';font-weight:700;font-size:83.333px;fill:white;">eff<tspan x="926.072px 977.208px 1013.55px " y="519.762px 519.762px 519.762px ">ort</tspan></text>
                    </g>
                </g>
            </g>
            <g id="base-effort1" serif:id="base effort">
                <g transform="matrix(10.0202,0,0,1.56517,-76.3229,-4911.56)">
                    <rect x="587" y="4313" width="444" height="412.268" style="fill:rgb(255,102,0);"/>
                </g>
                <g transform="matrix(0.99887,0,0,1,8208.51,1807.34)">
                    <text id="base-effort2" serif:id="base effort" x="1306.76px" y="384.596px" style="font-family:'Inter-Bold', 'Inter';font-weight:700;font-size:83.333px;fill:white;">base eff<tspan x="1636.49px 1687.62px 1723.96px " y="384.596px 384.596px 384.596px ">ort</tspan></text>
                </g>
            </g>
            <g id="system-complexity" serif:id="system complexity">
                <g id="system-complexity1" serif:id="system-complexity" transform="matrix(0.973942,0,0,1,150.92,0)">
                    <path d="M5805.9,2484.27L5805.9,1839C8130.32,1838.82 9323.28,1736.39 10373.9,1552.92L10373.9,2484.27L5805.9,2484.27Z" style="fill:rgb(255,102,0);"/>
                </g>
                <g transform="matrix(0.99887,0,0,1,8208.51,1642.3)">
                    <g id="system-complexity2" serif:id="system complexity">
                        <text x="707.756px" y="390.596px" style="font-family:'Inter-Regular', 'Inter';font-size:83.333px;fill:white;">base eff<tspan x="1028.78px 1078.49px 1112.35px " y="390.596px 390.596px 390.596px ">ort</tspan></text>
                        <text x="707.756px" y="490.596px" style="font-family:'Inter-Bold', 'Inter';font-weight:700;font-size:83.333px;fill:white;">+ syst<tspan x="958.081px " y="490.596px ">e</tspan>m</text>
                        <text x="1102.37px" y="490.596px" style="font-family:'Inter-Bold', 'Inter';font-weight:700;font-size:83.333px;fill:white;">comple<tspan x="1402.86px " y="490.596px ">x</tspan>ity</text>
                    </g>
                </g>
            </g>
            <g id="change-amplification" serif:id="change amplification">
                <g id="change-amplification1" serif:id="change-amplification" transform="matrix(0.973942,0,0,1,150.92,0)">
                    <path d="M5805.9,2484.27L5805.9,1839C8130.32,1838.82 9384.82,1633.74 10373.9,1358.27L10373.9,2484.27L5805.9,2484.27Z" style="fill:rgb(255,102,0);"/>
                </g>
                <g transform="matrix(0.99887,0,0,1,8205.51,1563.1)">
                    <g id="change-amplification2" serif:id="change amplification">
                        <text x="707.756px" y="386.793px" style="font-family:'Inter-Regular', 'Inter';font-size:83.333px;fill:white;">base eff<tspan x="1028.78px 1078.49px 1112.35px " y="386.793px 386.793px 386.793px ">ort</tspan></text>
                        <text x="707.756px" y="486.793px" style="font-family:'Inter-Regular', 'Inter';font-size:83.333px;fill:white;">+ syst<tspan x="949.47px " y="486.793px ">e</tspan>m comple<tspan x="1380.46px " y="486.793px ">x</tspan>ity</text>
                        <text x="707.756px" y="586.793px" style="font-family:'Inter-Bold', 'Inter';font-weight:700;font-size:83.333px;fill:white;">+</text>
                        <text x="782.054px" y="586.793px" style="font-family:'Inter-Bold', 'Inter';font-weight:700;font-size:83.333px;fill:white;">change amplification</text>
                    </g>
                </g>
            </g>
            <g id="mental-load" serif:id="mental load">
                <g id="mental-load1" serif:id="mental-load" transform="matrix(0.973942,0,0,1,150.92,0)">
                    <path d="M5805.9,2484.27L5805.9,1839C8130.32,1838.82 9535.58,1621.39 10373.9,894.917L10373.9,2484.27L5805.9,2484.27Z" style="fill:rgb(255,102,0);"/>
                </g>
                <g transform="matrix(0.99887,0,0,1,8210.5,1460.09)">
                    <g id="mental-load2" serif:id="mental load">
                        <text x="707.756px" y="381.478px" style="font-family:'Inter-Regular', 'Inter';font-size:83.333px;fill:white;">base eff<tspan x="1028.78px 1078.49px 1112.35px " y="381.478px 381.478px 381.478px ">ort</tspan></text>
                        <text x="707.756px" y="481.478px" style="font-family:'Inter-Regular', 'Inter';font-size:83.333px;fill:white;">+ syst<tspan x="949.47px " y="481.478px ">e</tspan>m comple<tspan x="1380.46px " y="481.478px ">x</tspan>ity</text>
                        <text x="707.756px" y="581.478px" style="font-family:'Inter-Regular', 'Inter';font-size:83.333px;fill:white;">+ change amplification</text>
                        <text x="707.756px" y="681.478px" style="font-family:'Inter-Bold', 'Inter';font-weight:700;font-size:83.333px;fill:white;">+ mental load</text>
                    </g>
                </g>
            </g>
            <g id="unknown-unknowns" serif:id="unknown unknowns">
                <g id="unknown-unknowns1" serif:id="unknown-unknowns" transform="matrix(0.973942,0,0,1,150.92,0)">
                    <path d="M5805.9,2484.27L5805.9,1839C8130.32,1838.82 9784.8,1455.48 10373.9,207L10373.9,2484.27L5805.9,2484.27Z" style="fill:rgb(255,102,0);"/>
                </g>
                <g transform="matrix(0.99887,0,0,1,8208.51,1363.56)">
                    <g id="mental-load3" serif:id="mental load">
                        <text x="707.756px" y="383.043px" style="font-family:'Inter-Regular', 'Inter';font-size:83.333px;fill:white;">base eff<tspan x="1028.78px 1078.49px 1112.35px " y="383.043px 383.043px 383.043px ">ort</tspan></text>
                        <text x="707.756px" y="483.043px" style="font-family:'Inter-Regular', 'Inter';font-size:83.333px;fill:white;">+ syst<tspan x="949.47px " y="483.043px ">e</tspan>m comple<tspan x="1380.46px " y="483.043px ">x</tspan>ity</text>
                        <text x="707.756px" y="583.043px" style="font-family:'Inter-Regular', 'Inter';font-size:83.333px;fill:white;">+ change</text>
                        <text x="1100.39px" y="583.043px" style="font-family:'Inter-Regular', 'Inter';font-size:83.333px;fill:white;">a</text>
                        <text x="1144.89px" y="583.043px" style="font-family:'Inter-Regular', 'Inter';font-size:83.333px;fill:white;">mplification</text>
                        <text x="707.756px" y="683.043px" style="font-family:'Inter-Regular', 'Inter';font-size:83.333px;fill:white;">+ mental load</text>
                        <text x="707.756px" y="783.043px" style="font-family:'Inter-Bold', 'Inter';font-weight:700;font-size:83.333px;fill:white;">+ unkno<tspan x="1037.66px " y="783.043px ">w</tspan>n unkno<tspan x="1433.58px " y="783.043px ">w</tspan>ns</text>
                    </g>
                </g>
            </g>
            <g id="Coordinate-System" transform="matrix(0.99887,0,0,1,5609.44,-103.955)">
                <g transform="matrix(6.12709e-17,-1,1,4.82939e-17,-258.157,1770.02)">
                    <text x="895.438px" y="377.941px" style="font-family:'Inter-Regular', 'Inter';font-size:83.333px;fill:rgb(50,50,50);stroke:rgb(150,150,150);stroke-width:1px;">eff<tspan x="1002.21px 1051.92px 1085.78px " y="377.941px 377.941px 377.941px ">ort</tspan> per f<tspan x="1321.46px " y="377.941px ">e</tspan>atur<tspan x="1525.29px " y="377.941px ">e</tspan></text>
                </g>
                <g transform="matrix(1,0,0,1,3731.83,2348.71)">
                    <text x="861.437px" y="373.775px" style="font-family:'Inter-Regular', 'Inter';font-size:83.333px;fill:rgb(50,50,50);stroke:rgb(150,150,150);stroke-width:1px;">time</text>
                </g>
                <g transform="matrix(1.14143,0,0,1.40411,-429.188,-834.414)">
                    <g transform="matrix(0.876095,-0,-0,0.712197,259.85,668.304)">
                        <path d="M366.403,167.245L328.903,92.245L291.403,167.245L366.403,167.245Z" style="fill:rgb(150,150,150);"/>
                        <path d="M4821.9,2448.74L4896.9,2486.24L4821.9,2523.74L4821.9,2448.74Z" style="fill:rgb(150,150,150);"/>
                        <path d="M328.903,152.245L328.903,2486.24L4836.9,2486.24" style="fill:none;stroke:rgb(150,150,150);stroke-width:25px;stroke-linecap:round;stroke-miterlimit:1.5;"/>
                    </g>
                </g>
            </g>
        </g>
    </g>
</svg>
