<?xml version="1.0" encoding="UTF-8" standalone="no"?>
<!DOCTYPE svg PUBLIC "-//W3C//DTD SVG 1.1//EN" "http://www.w3.org/Graphics/SVG/1.1/DTD/svg11.dtd">
<svg width="100%" height="100%" viewBox="0 0 5079 2717" version="1.1" xmlns="http://www.w3.org/2000/svg" xmlns:xlink="http://www.w3.org/1999/xlink" xml:space="preserve" xmlns:serif="http://www.serif.com/" style="fill-rule:evenodd;clip-rule:evenodd;stroke-linejoin:round;stroke-miterlimit:1.5;">
    <g transform="matrix(1,0,0,1,-9.09495e-13,-6614)">
        <g id="point-of-no-return" serif:id="point of no return" transform="matrix(1.00113,0,0,1,-5483.2,6614)">
            <rect x="5477" y="0" width="5073" height="2716.53" style="fill:none;"/>
            <g id="cumulative-optional-maintenance" serif:id="cumulative optional maintenance">
                <g id="cumulative-optional-maintenance1" serif:id="cumulative optional maintenance" transform="matrix(0.973942,0,0,1.39538,150.92,-81.8446)">
                    <g transform="matrix(1.02559,-0,-0,0.716648,5468.58,58.6538)">
                        <path d="M4722.46,224.368L4782.9,207L4760.53,265.776L4722.46,224.368Z" style="fill:rgb(9,134,208);"/>
                        <path d="M328.903,2484.27C1893.8,2071.11 3630.05,1259.24 4749.78,237.457" style="fill:none;stroke:rgb(9,134,208);stroke-width:18.75px;"/>
                    </g>
                </g>
                <g transform="matrix(0.99887,0,0,1,6.19028,5.54223e-13)">
                    <g id="cumulative-optional-maintenance2" serif:id="cumulative optional maintenance">
                        <g transform="matrix(0.868585,-0.495541,0.495541,0.868585,500.839,4452.34)">
                            <text x="8644.86px" y="1281.88px" style="font-family:'Inter-Regular', 'Inter';font-size:125px;fill:rgb(52,52,52);">c</text>
                        </g>
                        <g transform="matrix(0.864777,-0.502155,0.502155,0.864777,553.42,4542.75)">
                            <text x="8711.57px" y="1243.8px" style="font-family:'Inter-Regular', 'Inter';font-size:125px;fill:rgb(52,52,52);">u</text>
                        </g>
                        <g transform="matrix(0.860255,-0.509864,0.509864,0.860255,610.38,4642.31)">
                            <text x="8773.98px" y="1207.66px" style="font-family:'Inter-Regular', 'Inter';font-size:125px;fill:rgb(52,52,52);">m</text>
                        </g>
                        <g transform="matrix(0.855609,-0.517623,0.517623,0.855609,683.742,4756.12)">
                            <text x="8866.9px" y="1152.5px" style="font-family:'Inter-Regular', 'Inter';font-size:125px;fill:rgb(52,52,52);">u</text>
                        </g>
                        <g transform="matrix(0.852929,-0.522027,0.522027,0.852929,731.074,4825.01)">
                            <text x="8928.71px" y="1115.04px" style="font-family:'Inter-Regular', 'Inter';font-size:125px;fill:rgb(52,52,52);">l</text>
                        </g>
                        <g transform="matrix(0.850349,-0.526219,0.526219,0.850349,761.218,4876.21)">
                            <text x="8953.75px" y="1099.77px" style="font-family:'Inter-Regular', 'Inter';font-size:125px;fill:rgb(52,52,52);">a</text>
                        </g>
                        <g transform="matrix(0.847152,-0.53135,0.53135,0.847152,812.926,4951.69)">
                            <text x="9013.34px" y="1062.84px" style="font-family:'Inter-Regular', 'Inter';font-size:125px;fill:rgb(52,52,52);">t</text>
                        </g>
                        <g transform="matrix(0.845048,-0.53469,0.53469,0.845048,847.165,5000.82)">
                            <text x="9051.7px" y="1038.76px" style="font-family:'Inter-Regular', 'Inter';font-size:125px;fill:rgb(52,52,52);">i</text>
                        </g>
                        <g transform="matrix(0.842292,-0.539022,0.539022,0.842292,879.91,5053.75)">
                            <text x="9076.42px" y="1023.18px" style="font-family:'Inter-Regular', 'Inter';font-size:125px;fill:rgb(52,52,52);">v</text>
                        </g>
                        <g transform="matrix(0.838385,-0.545078,0.545078,0.838385,937.842,5137.54)">
                            <text x="9132.61px" y="987.243px" style="font-family:'Inter-Regular', 'Inter';font-size:125px;fill:rgb(52,52,52);">e</text>
                        </g>
                        <g transform="matrix(0.832014,-0.554755,0.554755,0.832014,1034.12,5272.21)">
                            <text x="9222.5px" y="928.575px" style="font-family:'Inter-Regular', 'Inter';font-size:125px;fill:rgb(52,52,52);">o</text>
                        </g>
                        <g transform="matrix(0.827382,-0.561639,0.561639,0.827382,1104.09,5367.48)">
                            <text x="9284.02px" y="887.572px" style="font-family:'Inter-Regular', 'Inter';font-size:125px;fill:rgb(52,52,52);">p</text>
                        </g>
                        <g transform="matrix(0.823758,-0.566941,0.566941,0.823758,1168.28,5447.98)">
                            <text x="9346.78px" y="844.91px" style="font-family:'Inter-Regular', 'Inter';font-size:125px;fill:rgb(52,52,52);">t</text>
                        </g>
                        <g transform="matrix(0.821377,-0.570386,0.570386,0.821377,1208.83,5498.79)">
                            <text x="9383.89px" y="819.355px" style="font-family:'Inter-Regular', 'Inter';font-size:125px;fill:rgb(52,52,52);">i</text>
                        </g>
                        <g transform="matrix(0.818064,-0.575128,0.575128,0.818064,1250.05,5556.87)">
                            <text x="9408.07px" y="802.642px" style="font-family:'Inter-Regular', 'Inter';font-size:125px;fill:rgb(52,52,52);">o</text>
                        </g>
                        <g transform="matrix(0.813269,-0.581889,0.581889,0.813269,1325.84,5651.63)">
                            <text x="9468.66px" y="760.043px" style="font-family:'Inter-Regular', 'Inter';font-size:125px;fill:rgb(52,52,52);">n</text>
                        </g>
                        <g transform="matrix(0.808605,-0.588351,0.588351,0.808605,1401.22,5743)">
                            <text x="9527.66px" y="717.816px" style="font-family:'Inter-Regular', 'Inter';font-size:125px;fill:rgb(52,52,52);">a</text>
                        </g>
                        <g transform="matrix(0.805096,-0.593144,0.593144,0.805096,1466.76,5816.75)">
                            <text x="9584.34px" y="676.495px" style="font-family:'Inter-Regular', 'Inter';font-size:125px;fill:rgb(52,52,52);">l</text>
                        </g>
                        <g transform="matrix(0.797832,-0.60288,0.60288,0.797832,1563.06,5938.36)">
                            <text x="9635.84px" y="638.599px" style="font-family:'Inter-Regular', 'Inter';font-size:125px;fill:rgb(52,52,52);">m</text>
                        </g>
                        <g transform="matrix(0.791479,-0.611196,0.611196,0.791479,1676.86,6061.65)">
                            <text x="9722.09px" y="573.29px" style="font-family:'Inter-Regular', 'Inter';font-size:125px;fill:rgb(52,52,52);">a</text>
                        </g>
                        <g transform="matrix(0.787665,-0.616103,0.616103,0.787665,1749.28,6136.56)">
                            <text x="9777.46px" y="530.453px" style="font-family:'Inter-Regular', 'Inter';font-size:125px;fill:rgb(52,52,52);">i</text>
                        </g>
                        <g transform="matrix(0.783805,-0.621007,0.621007,0.783805,1800.6,6197.02)">
                            <text x="9800.58px" y="512.453px" style="font-family:'Inter-Regular', 'Inter';font-size:125px;fill:rgb(52,52,52);">n</text>
                        </g>
                        <g transform="matrix(0.779302,-0.626649,0.626649,0.779302,1882.72,6280.34)">
                            <text x="9857.52px" y="467.275px" style="font-family:'Inter-Regular', 'Inter';font-size:125px;fill:rgb(52,52,52);">t</text>
                        </g>
                        <g transform="matrix(0.774687,-0.632345,0.632345,0.774687,1950.86,6354.24)">
                            <text x="9892.08px" y="439.557px" style="font-family:'Inter-Regular', 'Inter';font-size:125px;fill:rgb(52,52,52);">e</text>
                        </g>
                        <g transform="matrix(0.768845,-0.639435,0.639435,0.768845,2047.63,6452.15)">
                            <text x="9947.98px" y="393.931px" style="font-family:'Inter-Regular', 'Inter';font-size:125px;fill:rgb(52,52,52);">n</text>
                        </g>
                        <g transform="matrix(0.76306,-0.646328,0.646328,0.76306,2145.78,6548.11)">
                            <text x="10003.9px" y="347.414px" style="font-family:'Inter-Regular', 'Inter';font-size:125px;fill:rgb(52,52,52);">a</text>
                        </g>
                        <g transform="matrix(0.75687,-0.653566,0.653566,0.75687,2247.64,6646.52)">
                            <text x="10057.2px" y="302.285px" style="font-family:'Inter-Regular', 'Inter';font-size:125px;fill:rgb(52,52,52);">n</text>
                        </g>
                        <g transform="matrix(0.750638,-0.660713,0.660713,0.750638,2353.24,6744.78)">
                            <text x="10112.2px" y="254.8px" style="font-family:'Inter-Regular', 'Inter';font-size:125px;fill:rgb(52,52,52);">c</text>
                        </g>
                        <g transform="matrix(0.744343,-0.667797,0.667797,0.744343,2458.78,6840.96)">
                            <text x="10164px" y="209.213px" style="font-family:'Inter-Regular', 'Inter';font-size:125px;fill:rgb(52,52,52);">e</text>
                        </g>
                    </g>
                </g>
            </g>
            <g id="cumulative-mandatory-maintenance" serif:id="cumulative mandatory maintenance">
                <g id="cumulative-mandatory-maintenance1" serif:id="cumulative mandatory maintenance" transform="matrix(0.973942,0,0,1.39538,150.92,-81.8446)">
                    <g transform="matrix(1.02559,-0,-0,0.716648,5468.58,58.6538)">
                        <path d="M4721.98,2061.91L4782.9,2077.53L4733.86,2116.89L4721.98,2061.91Z" style="fill:rgb(255,102,0);"/>
                        <path d="M328.903,2484.27C2028.89,2459.33 3570.67,2336.74 4738.92,2087.03" style="fill:none;stroke:rgb(255,102,0);stroke-width:18.75px;"/>
                    </g>
                </g>
                <g transform="matrix(0.99887,0,0,1,6.19028,530.017)">
                    <g id="cumulative-mandatory-maintenance2" serif:id="cumulative mandatory maintenance">
                        <g transform="matrix(0.996624,-0.0820971,0.0820971,0.996624,-119.765,671.467)">
                            <text x="8105.25px" y="1792.09px" style="font-family:'Inter-Regular', 'Inter';font-size:125px;fill:rgb(52,52,52);">c</text>
                        </g>
                        <g transform="matrix(0.996392,-0.084873,0.084873,0.996392,-122.119,700.258)">
                            <text x="8174.71px" y="1786.38px" style="font-family:'Inter-Regular', 'Inter';font-size:125px;fill:rgb(52,52,52);">u</text>
                        </g>
                        <g transform="matrix(0.996075,-0.0885154,0.0885154,0.996075,-125.21,736.961)">
                            <text x="8246.85px" y="1780.26px" style="font-family:'Inter-Regular', 'Inter';font-size:125px;fill:rgb(52,52,52);">m</text>
                        </g>
                        <g transform="matrix(0.995735,-0.0922632,0.0922632,0.995735,-127.731,778.377)">
                            <text x="8354.62px" y="1770.65px" style="font-family:'Inter-Regular', 'Inter';font-size:125px;fill:rgb(52,52,52);">u</text>
                        </g>
                        <g transform="matrix(0.995531,-0.0944404,0.0944404,0.995531,-128.923,803.721)">
                            <text x="8426.87px" y="1763.94px" style="font-family:'Inter-Regular', 'Inter';font-size:125px;fill:rgb(52,52,52);">l</text>
                        </g>
                        <g transform="matrix(0.995328,-0.0965468,0.0965468,0.995328,-130.529,824.667)">
                            <text x="8456.41px" y="1761.15px" style="font-family:'Inter-Regular', 'Inter';font-size:125px;fill:rgb(52,52,52);">a</text>
                        </g>
                        <g transform="matrix(0.995072,-0.0991563,0.0991563,0.995072,-131.936,854.088)">
                            <text x="8526.36px" y="1754.35px" style="font-family:'Inter-Regular', 'Inter';font-size:125px;fill:rgb(52,52,52);">t</text>
                        </g>
                        <g transform="matrix(0.994899,-0.100872,0.100872,0.994899,-132.793,873.534)">
                            <text x="8571.35px" y="1749.86px" style="font-family:'Inter-Regular', 'Inter';font-size:125px;fill:rgb(52,52,52);">i</text>
                        </g>
                        <g transform="matrix(0.994666,-0.10315,0.10315,0.994666,-134.314,896.491)">
                            <text x="8600.79px" y="1746.9px" style="font-family:'Inter-Regular', 'Inter';font-size:125px;fill:rgb(52,52,52);">v</text>
                        </g>
                        <g transform="matrix(0.994324,-0.106391,0.106391,0.994324,-135.926,932.011)">
                            <text x="8667.46px" y="1739.99px" style="font-family:'Inter-Regular', 'Inter';font-size:125px;fill:rgb(52,52,52);">e</text>
                        </g>
                        <g transform="matrix(0.993644,-0.112571,0.112571,0.993644,-138.81,998.706)">
                            <text x="8774.19px" y="1728.53px" style="font-family:'Inter-Regular', 'Inter';font-size:125px;fill:rgb(52,52,52);">m</text>
                        </g>
                        <g transform="matrix(0.993117,-0.117123,0.117123,0.993117,-139.886,1052.08)">
                            <text x="8881.87px" y="1716.28px" style="font-family:'Inter-Regular', 'Inter';font-size:125px;fill:rgb(52,52,52);">a</text>
                        </g>
                        <g transform="matrix(0.992641,-0.121091,0.121091,0.992641,-140.954,1096.55)">
                            <text x="8951.83px" y="1708.03px" style="font-family:'Inter-Regular', 'Inter';font-size:125px;fill:rgb(52,52,52);">n</text>
                        </g>
                        <g transform="matrix(0.992135,-0.125174,0.125174,0.992135,-141.724,1142.94)">
                            <text x="9023.98px" y="1699.23px" style="font-family:'Inter-Regular', 'Inter';font-size:125px;fill:rgb(52,52,52);">d</text>
                        </g>
                        <g transform="matrix(0.991574,-0.129543,0.129543,0.991574,-142.183,1193.17)">
                            <text x="9100.74px" y="1689.53px" style="font-family:'Inter-Regular', 'Inter';font-size:125px;fill:rgb(52,52,52);">a</text>
                        </g>
                        <g transform="matrix(0.991099,-0.133129,0.133129,0.991099,-142.082,1235.8)">
                            <text x="9170.38px" y="1680.41px" style="font-family:'Inter-Regular', 'Inter';font-size:125px;fill:rgb(52,52,52);">t</text>
                        </g>
                        <g transform="matrix(0.990584,-0.136908,0.136908,0.990584,-142.484,1277.32)">
                            <text x="9214.63px" y="1674.49px" style="font-family:'Inter-Regular', 'Inter';font-size:125px;fill:rgb(52,52,52);">o</text>
                        </g>
                        <g transform="matrix(0.989995,-0.1411,0.1411,0.989995,-141.906,1327.22)">
                            <text x="9288.26px" y="1664.3px" style="font-family:'Inter-Regular', 'Inter';font-size:125px;fill:rgb(52,52,52);">r</text>
                        </g>
                        <g transform="matrix(0.989436,-0.14497,0.14497,0.989436,-141.664,1370.95)">
                            <text x="9336.04px" y="1657.51px" style="font-family:'Inter-Regular', 'Inter';font-size:125px;fill:rgb(52,52,52);">y</text>
                        </g>
                        <g transform="matrix(0.988051,-0.154127,0.154127,0.988051,-140.296,1474.65)">
                            <text x="9440.44px" y="1642.15px" style="font-family:'Inter-Regular', 'Inter';font-size:125px;fill:rgb(52,52,52);">m</text>
                        </g>
                        <g transform="matrix(0.98694,-0.161089,0.161089,0.98694,-137.142,1559.22)">
                            <text x="9547.43px" y="1625.39px" style="font-family:'Inter-Regular', 'Inter';font-size:125px;fill:rgb(52,52,52);">a</text>
                        </g>
                        <g transform="matrix(0.986223,-0.165424,0.165424,0.986223,-134.506,1613.07)">
                            <text x="9616.73px" y="1614.03px" style="font-family:'Inter-Regular', 'Inter';font-size:125px;fill:rgb(52,52,52);">i</text>
                        </g>
                        <g transform="matrix(0.98546,-0.169907,0.169907,0.98546,-133.175,1662.26)">
                            <text x="9645.6px" y="1609.24px" style="font-family:'Inter-Regular', 'Inter';font-size:125px;fill:rgb(52,52,52);">n</text>
                        </g>
                        <g transform="matrix(0.984514,-0.175307,0.175307,0.984514,-129.455,1728.24)">
                            <text x="9717.27px" y="1596.85px" style="font-family:'Inter-Regular', 'Inter';font-size:125px;fill:rgb(52,52,52);">t</text>
                        </g>
                        <g transform="matrix(0.983473,-0.181054,0.181054,0.983473,-126.391,1793.55)">
                            <text x="9761.08px" y="1589.09px" style="font-family:'Inter-Regular', 'Inter';font-size:125px;fill:rgb(52,52,52);">e</text>
                        </g>
                        <g transform="matrix(0.982047,-0.188637,0.188637,0.982047,-120.776,1883)">
                            <text x="9832.16px" y="1576.01px" style="font-family:'Inter-Regular', 'Inter';font-size:125px;fill:rgb(52,52,52);">n</text>
                        </g>
                        <g transform="matrix(0.980498,-0.196528,0.196528,0.980498,-113.896,1976.79)">
                            <text x="9903.57px" y="1562.29px" style="font-family:'Inter-Regular', 'Inter';font-size:125px;fill:rgb(52,52,52);">a</text>
                        </g>
                        <g transform="matrix(0.978661,-0.205481,0.205481,0.978661,-105.402,2082.13)">
                            <text x="9972.15px" y="1548.55px" style="font-family:'Inter-Regular', 'Inter';font-size:125px;fill:rgb(52,52,52);">n</text>
                        </g>
                        <g transform="matrix(0.976606,-0.215037,0.215037,0.976606,-94.8494,2195.5)">
                            <text x="10043px" y="1533.67px" style="font-family:'Inter-Regular', 'Inter';font-size:125px;fill:rgb(52,52,52);">c</text>
                        </g>
                        <g transform="matrix(0.974258,-0.225434,0.225434,0.974258,-82.1368,2318.35)">
                            <text x="10110.5px" y="1518.83px" style="font-family:'Inter-Regular', 'Inter';font-size:125px;fill:rgb(52,52,52);">e</text>
                        </g>
                    </g>
                </g>
            </g>
            <g id="switch-to-optional-development" serif:id="switch to optional development">
                <g id="maintenance-gap" serif:id="maintenance gap" transform="matrix(0.973942,0,0,1.39538,150.92,-81.8446)">
                    <g transform="matrix(1.02559,-0,-0,0.716648,5468.58,58.6538)">
                        <path d="M2876.05,1472.26L2938.91,1470.3L2902.76,1521.76L2876.05,1472.26Z" style="fill:url(#_Linear1);"/>
                        <path d="M1763.68,2437.16C2297.84,2417.5 2473.17,1739.27 2899.31,1491.67" style="fill:none;stroke:url(#_Linear2);stroke-width:18.75px;"/>
                    </g>
                </g>
                <g transform="matrix(0.965154,-0.257622,0.257331,0.966246,7155.46,1814.2)">
                    <text id="switch" x="707.756px" y="447.408px" style="font-family:'Inter-Regular', 'Inter';font-size:125px;fill:rgb(51,51,51);">swit<tspan x="949.056px " y="447.408px ">c</tspan>h</text>
                </g>
            </g>
            <g id="technical-debt" serif:id="technical debt">
                <g id="cumulative-mandatory-maintenance3" serif:id="cumulative mandatory maintenance" transform="matrix(0.973942,0,0,1.39538,150.92,-81.8446)">
                    <g transform="matrix(1.02559,-0,-0,0.716648,5468.58,58.6538)">
                        <path d="M4721.98,2061.91L4782.9,2077.53L4733.86,2116.89L4721.98,2061.91Z" style="fill:rgb(255,102,0);"/>
                        <path d="M328.903,2484.27C2028.89,2459.33 3570.67,2336.74 4738.92,2087.03" style="fill:none;stroke:rgb(255,102,0);stroke-width:18.75px;"/>
                    </g>
                </g>
                <g id="cumulative-mandatory-maintenance4" serif:id="cumulative mandatory maintenance" transform="matrix(0.973942,0,0,1.39538,150.92,-81.8446)">
                    <g transform="matrix(1.02559,0,0,0.716648,-148.602,438.49)">
                        <g transform="matrix(0.996705,-0.0811168,0.0811168,0.996705,-118.907,661.333)">
                            <text x="8079.96px" y="1794.13px" style="font-family:'Inter-Regular', 'Inter';font-size:125px;fill:none;stroke:white;stroke-width:14.58px;stroke-miterlimit:2;">c</text>
                        </g>
                        <g transform="matrix(0.996477,-0.0838623,0.0838623,0.996477,-121.281,689.712)">
                            <text x="8149.22px" y="1788.5px" style="font-family:'Inter-Regular', 'Inter';font-size:125px;fill:none;stroke:white;stroke-width:14.58px;stroke-miterlimit:2;">u</text>
                        </g>
                        <g transform="matrix(0.996167,-0.0874744,0.0874744,0.996167,-124.405,725.993)">
                            <text x="8221.38px" y="1782.46px" style="font-family:'Inter-Regular', 'Inter';font-size:125px;fill:none;stroke:white;stroke-width:14.58px;stroke-miterlimit:2;">m</text>
                        </g>
                        <g transform="matrix(0.995832,-0.0912016,0.0912016,0.995832,-126.981,767.051)">
                            <text x="8329.48px" y="1772.93px" style="font-family:'Inter-Regular', 'Inter';font-size:125px;fill:none;stroke:white;stroke-width:14.58px;stroke-miterlimit:2;">u</text>
                        </g>
                        <g transform="matrix(0.995633,-0.0933546,0.0933546,0.995633,-128.202,792.044)">
                            <text x="8401.63px" y="1766.3px" style="font-family:'Inter-Regular', 'Inter';font-size:125px;fill:none;stroke:white;stroke-width:14.58px;stroke-miterlimit:2;">l</text>
                        </g>
                        <g transform="matrix(0.995436,-0.0954364,0.0954364,0.995436,-129.825,812.681)">
                            <text x="8431.07px" y="1763.56px" style="font-family:'Inter-Regular', 'Inter';font-size:125px;fill:none;stroke:white;stroke-width:14.58px;stroke-miterlimit:2;">a</text>
                        </g>
                        <g transform="matrix(0.995185,-0.0980176,0.0980176,0.995185,-131.266,841.706)">
                            <text x="8500.98px" y="1756.84px" style="font-family:'Inter-Regular', 'Inter';font-size:125px;fill:none;stroke:white;stroke-width:14.58px;stroke-miterlimit:2;">t</text>
                        </g>
                        <g transform="matrix(0.995015,-0.0997222,0.0997222,0.995015,-132.152,860.973)">
                            <text x="8546.12px" y="1752.39px" style="font-family:'Inter-Regular', 'Inter';font-size:125px;fill:none;stroke:white;stroke-width:14.58px;stroke-miterlimit:2;">i</text>
                        </g>
                        <g transform="matrix(0.994787,-0.101973,0.101973,0.994787,-133.696,883.587)">
                            <text x="8575.49px" y="1749.47px" style="font-family:'Inter-Regular', 'Inter';font-size:125px;fill:none;stroke:white;stroke-width:14.58px;stroke-miterlimit:2;">v</text>
                        </g>
                        <g transform="matrix(0.994453,-0.105179,0.105179,0.994453,-135.353,918.636)">
                            <text x="8642.17px" y="1742.64px" style="font-family:'Inter-Regular', 'Inter';font-size:125px;fill:none;stroke:white;stroke-width:14.58px;stroke-miterlimit:2;">e</text>
                        </g>
                        <g transform="matrix(0.993167,-0.1167,0.1167,0.993167,-140.186,1044.94)">
                            <text x="8853.4px" y="1719.61px" style="font-family:'Inter-Regular', 'Inter';font-size:125px;fill:none;stroke:white;stroke-width:14.58px;stroke-miterlimit:2;">m</text>
                        </g>
                        <g transform="matrix(0.992599,-0.121441,0.121441,0.992599,-140.966,1100.87)">
                            <text x="8961.03px" y="1706.92px" style="font-family:'Inter-Regular', 'Inter';font-size:125px;fill:none;stroke:white;stroke-width:14.58px;stroke-miterlimit:2;">a</text>
                        </g>
                        <g transform="matrix(0.992084,-0.125577,0.125577,0.992084,-141.788,1147.51)">
                            <text x="9030.84px" y="1698.38px" style="font-family:'Inter-Regular', 'Inter';font-size:125px;fill:none;stroke:white;stroke-width:14.58px;stroke-miterlimit:2;">n</text>
                        </g>
                        <g transform="matrix(0.991533,-0.129854,0.129854,0.991533,-142.28,1196.37)">
                            <text x="9103.05px" y="1689.24px" style="font-family:'Inter-Regular', 'Inter';font-size:125px;fill:none;stroke:white;stroke-width:14.58px;stroke-miterlimit:2;">d</text>
                        </g>
                        <g transform="matrix(0.990923,-0.134434,0.134434,0.990923,-142.41,1249.31)">
                            <text x="9179.74px" y="1679.18px" style="font-family:'Inter-Regular', 'Inter';font-size:125px;fill:none;stroke:white;stroke-width:14.58px;stroke-miterlimit:2;">a</text>
                        </g>
                        <g transform="matrix(0.990405,-0.138199,0.138199,0.990405,-142.002,1294.26)">
                            <text x="9249.29px" y="1669.72px" style="font-family:'Inter-Regular', 'Inter';font-size:125px;fill:none;stroke:white;stroke-width:14.58px;stroke-miterlimit:2;">t</text>
                        </g>
                        <g transform="matrix(0.989842,-0.142171,0.142171,0.989842,-142.114,1338.14)">
                            <text x="9293.39px" y="1663.6px" style="font-family:'Inter-Regular', 'Inter';font-size:125px;fill:none;stroke:white;stroke-width:14.58px;stroke-miterlimit:2;">o</text>
                        </g>
                        <g transform="matrix(0.989197,-0.146595,0.146595,0.989197,-141.128,1391.01)">
                            <text x="9366.94px" y="1653.01px" style="font-family:'Inter-Regular', 'Inter';font-size:125px;fill:none;stroke:white;stroke-width:14.58px;stroke-miterlimit:2;">r</text>
                        </g>
                        <g transform="matrix(0.988578,-0.150712,0.150712,0.988578,-140.519,1437.75)">
                            <text x="9414.97px" y="1645.92px" style="font-family:'Inter-Regular', 'Inter';font-size:125px;fill:none;stroke:white;stroke-width:14.58px;stroke-miterlimit:2;">y</text>
                        </g>
                        <g transform="matrix(0.987064,-0.160328,0.160328,0.987064,-138.238,1547.06)">
                            <text x="9517.84px" y="1630.17px" style="font-family:'Inter-Regular', 'Inter';font-size:125px;fill:none;stroke:white;stroke-width:14.58px;stroke-miterlimit:2;">m</text>
                        </g>
                        <g transform="matrix(0.985847,-0.167649,0.167649,0.985847,-134.206,1636.19)">
                            <text x="9623.47px" y="1612.95px" style="font-family:'Inter-Regular', 'Inter';font-size:125px;fill:none;stroke:white;stroke-width:14.58px;stroke-miterlimit:2;">a</text>
                        </g>
                        <g transform="matrix(0.985069,-0.172161,0.172161,0.985069,-130.989,1692.38)">
                            <text x="9691.33px" y="1601.36px" style="font-family:'Inter-Regular', 'Inter';font-size:125px;fill:none;stroke:white;stroke-width:14.58px;stroke-miterlimit:2;">i</text>
                        </g>
                        <g transform="matrix(0.984237,-0.176855,0.176855,0.984237,-129.162,1744.02)">
                            <text x="9719.01px" y="1596.58px" style="font-family:'Inter-Regular', 'Inter';font-size:125px;fill:none;stroke:white;stroke-width:14.58px;stroke-miterlimit:2;">n</text>
                        </g>
                        <g transform="matrix(0.983199,-0.182536,0.182536,0.983199,-124.648,1813.53)">
                            <text x="9789.41px" y="1583.9px" style="font-family:'Inter-Regular', 'Inter';font-size:125px;fill:none;stroke:white;stroke-width:14.58px;stroke-miterlimit:2;">t</text>
                        </g>
                        <g transform="matrix(0.982055,-0.188593,0.188593,0.982055,-120.801,1882.52)">
                            <text x="9831.94px" y="1576.05px" style="font-family:'Inter-Regular', 'Inter';font-size:125px;fill:none;stroke:white;stroke-width:14.58px;stroke-miterlimit:2;">e</text>
                        </g>
                        <g transform="matrix(0.980475,-0.196643,0.196643,0.980475,-113.961,1977.6)">
                            <text x="9901.66px" y="1562.67px" style="font-family:'Inter-Regular', 'Inter';font-size:125px;fill:none;stroke:white;stroke-width:14.58px;stroke-miterlimit:2;">n</text>
                        </g>
                        <g transform="matrix(0.978753,-0.205043,0.205043,0.978753,-105.668,2077.52)">
                            <text x="9971.67px" y="1548.63px" style="font-family:'Inter-Regular', 'Inter';font-size:125px;fill:none;stroke:white;stroke-width:14.58px;stroke-miterlimit:2;">a</text>
                        </g>
                        <g transform="matrix(0.976697,-0.214623,0.214623,0.976697,-95.4209,2190.32)">
                            <text x="10038.8px" y="1534.58px" style="font-family:'Inter-Regular', 'Inter';font-size:125px;fill:none;stroke:white;stroke-width:14.58px;stroke-miterlimit:2;">n</text>
                        </g>
                        <g transform="matrix(0.97438,-0.224909,0.224909,0.97438,-82.7309,2312.37)">
                            <text x="10108.3px" y="1519.32px" style="font-family:'Inter-Regular', 'Inter';font-size:125px;fill:none;stroke:white;stroke-width:14.58px;stroke-miterlimit:2;">c</text>
                        </g>
                        <g transform="matrix(0.971712,-0.23617,0.23617,0.971712,-67.4005,2445.45)">
                            <text x="10174.5px" y="1504.08px" style="font-family:'Inter-Regular', 'Inter';font-size:125px;fill:none;stroke:white;stroke-width:14.58px;stroke-miterlimit:2;">e</text>
                        </g>
                    </g>
                    <g transform="matrix(1.02559,0,0,0.716648,-148.602,438.49)">
                        <g transform="matrix(0.996705,-0.0811168,0.0811168,0.996705,-118.907,661.333)">
                            <text x="8079.96px" y="1794.13px" style="font-family:'Inter-Regular', 'Inter';font-size:125px;fill:rgb(52,52,52);">c</text>
                        </g>
                        <g transform="matrix(0.996477,-0.0838623,0.0838623,0.996477,-121.281,689.712)">
                            <text x="8149.22px" y="1788.5px" style="font-family:'Inter-Regular', 'Inter';font-size:125px;fill:rgb(52,52,52);">u</text>
                        </g>
                        <g transform="matrix(0.996167,-0.0874744,0.0874744,0.996167,-124.405,725.993)">
                            <text x="8221.38px" y="1782.46px" style="font-family:'Inter-Regular', 'Inter';font-size:125px;fill:rgb(52,52,52);">m</text>
                        </g>
                        <g transform="matrix(0.995832,-0.0912016,0.0912016,0.995832,-126.981,767.051)">
                            <text x="8329.48px" y="1772.93px" style="font-family:'Inter-Regular', 'Inter';font-size:125px;fill:rgb(52,52,52);">u</text>
                        </g>
                        <g transform="matrix(0.995633,-0.0933546,0.0933546,0.995633,-128.202,792.044)">
                            <text x="8401.63px" y="1766.3px" style="font-family:'Inter-Regular', 'Inter';font-size:125px;fill:rgb(52,52,52);">l</text>
                        </g>
                        <g transform="matrix(0.995436,-0.0954364,0.0954364,0.995436,-129.825,812.681)">
                            <text x="8431.07px" y="1763.56px" style="font-family:'Inter-Regular', 'Inter';font-size:125px;fill:rgb(52,52,52);">a</text>
                        </g>
                        <g transform="matrix(0.995185,-0.0980176,0.0980176,0.995185,-131.266,841.706)">
                            <text x="8500.98px" y="1756.84px" style="font-family:'Inter-Regular', 'Inter';font-size:125px;fill:rgb(52,52,52);">t</text>
                        </g>
                        <g transform="matrix(0.995015,-0.0997222,0.0997222,0.995015,-132.152,860.973)">
                            <text x="8546.12px" y="1752.39px" style="font-family:'Inter-Regular', 'Inter';font-size:125px;fill:rgb(52,52,52);">i</text>
                        </g>
                        <g transform="matrix(0.994787,-0.101973,0.101973,0.994787,-133.696,883.587)">
                            <text x="8575.49px" y="1749.47px" style="font-family:'Inter-Regular', 'Inter';font-size:125px;fill:rgb(52,52,52);">v</text>
                        </g>
                        <g transform="matrix(0.994453,-0.105179,0.105179,0.994453,-135.353,918.636)">
                            <text x="8642.17px" y="1742.64px" style="font-family:'Inter-Regular', 'Inter';font-size:125px;fill:rgb(52,52,52);">e</text>
                        </g>
                        <g transform="matrix(0.993167,-0.1167,0.1167,0.993167,-140.186,1044.94)">
                            <text x="8853.4px" y="1719.61px" style="font-family:'Inter-Regular', 'Inter';font-size:125px;fill:rgb(52,52,52);">m</text>
                        </g>
                        <g transform="matrix(0.992599,-0.121441,0.121441,0.992599,-140.966,1100.87)">
                            <text x="8961.03px" y="1706.92px" style="font-family:'Inter-Regular', 'Inter';font-size:125px;fill:rgb(52,52,52);">a</text>
                        </g>
                        <g transform="matrix(0.992084,-0.125577,0.125577,0.992084,-141.788,1147.51)">
                            <text x="9030.84px" y="1698.38px" style="font-family:'Inter-Regular', 'Inter';font-size:125px;fill:rgb(52,52,52);">n</text>
                        </g>
                        <g transform="matrix(0.991533,-0.129854,0.129854,0.991533,-142.28,1196.37)">
                            <text x="9103.05px" y="1689.24px" style="font-family:'Inter-Regular', 'Inter';font-size:125px;fill:rgb(52,52,52);">d</text>
                        </g>
                        <g transform="matrix(0.990923,-0.134434,0.134434,0.990923,-142.41,1249.31)">
                            <text x="9179.74px" y="1679.18px" style="font-family:'Inter-Regular', 'Inter';font-size:125px;fill:rgb(52,52,52);">a</text>
                        </g>
                        <g transform="matrix(0.990405,-0.138199,0.138199,0.990405,-142.002,1294.26)">
                            <text x="9249.29px" y="1669.72px" style="font-family:'Inter-Regular', 'Inter';font-size:125px;fill:rgb(52,52,52);">t</text>
                        </g>
                        <g transform="matrix(0.989842,-0.142171,0.142171,0.989842,-142.114,1338.14)">
                            <text x="9293.39px" y="1663.6px" style="font-family:'Inter-Regular', 'Inter';font-size:125px;fill:rgb(52,52,52);">o</text>
                        </g>
                        <g transform="matrix(0.989197,-0.146595,0.146595,0.989197,-141.128,1391.01)">
                            <text x="9366.94px" y="1653.01px" style="font-family:'Inter-Regular', 'Inter';font-size:125px;fill:rgb(52,52,52);">r</text>
                        </g>
                        <g transform="matrix(0.988578,-0.150712,0.150712,0.988578,-140.519,1437.75)">
                            <text x="9414.97px" y="1645.92px" style="font-family:'Inter-Regular', 'Inter';font-size:125px;fill:rgb(52,52,52);">y</text>
                        </g>
                        <g transform="matrix(0.987064,-0.160328,0.160328,0.987064,-138.238,1547.06)">
                            <text x="9517.84px" y="1630.17px" style="font-family:'Inter-Regular', 'Inter';font-size:125px;fill:rgb(52,52,52);">m</text>
                        </g>
                        <g transform="matrix(0.985847,-0.167649,0.167649,0.985847,-134.206,1636.19)">
                            <text x="9623.47px" y="1612.95px" style="font-family:'Inter-Regular', 'Inter';font-size:125px;fill:rgb(52,52,52);">a</text>
                        </g>
                        <g transform="matrix(0.985069,-0.172161,0.172161,0.985069,-130.989,1692.38)">
                            <text x="9691.33px" y="1601.36px" style="font-family:'Inter-Regular', 'Inter';font-size:125px;fill:rgb(52,52,52);">i</text>
                        </g>
                        <g transform="matrix(0.984237,-0.176855,0.176855,0.984237,-129.162,1744.02)">
                            <text x="9719.01px" y="1596.58px" style="font-family:'Inter-Regular', 'Inter';font-size:125px;fill:rgb(52,52,52);">n</text>
                        </g>
                        <g transform="matrix(0.983199,-0.182536,0.182536,0.983199,-124.648,1813.53)">
                            <text x="9789.41px" y="1583.9px" style="font-family:'Inter-Regular', 'Inter';font-size:125px;fill:rgb(52,52,52);">t</text>
                        </g>
                        <g transform="matrix(0.982055,-0.188593,0.188593,0.982055,-120.801,1882.52)">
                            <text x="9831.94px" y="1576.05px" style="font-family:'Inter-Regular', 'Inter';font-size:125px;fill:rgb(52,52,52);">e</text>
                        </g>
                        <g transform="matrix(0.980475,-0.196643,0.196643,0.980475,-113.961,1977.6)">
                            <text x="9901.66px" y="1562.67px" style="font-family:'Inter-Regular', 'Inter';font-size:125px;fill:rgb(52,52,52);">n</text>
                        </g>
                        <g transform="matrix(0.978753,-0.205043,0.205043,0.978753,-105.668,2077.52)">
                            <text x="9971.67px" y="1548.63px" style="font-family:'Inter-Regular', 'Inter';font-size:125px;fill:rgb(52,52,52);">a</text>
                        </g>
                        <g transform="matrix(0.976697,-0.214623,0.214623,0.976697,-95.4209,2190.32)">
                            <text x="10038.8px" y="1534.58px" style="font-family:'Inter-Regular', 'Inter';font-size:125px;fill:rgb(52,52,52);">n</text>
                        </g>
                        <g transform="matrix(0.97438,-0.224909,0.224909,0.97438,-82.7309,2312.37)">
                            <text x="10108.3px" y="1519.32px" style="font-family:'Inter-Regular', 'Inter';font-size:125px;fill:rgb(52,52,52);">c</text>
                        </g>
                        <g transform="matrix(0.971712,-0.23617,0.23617,0.971712,-67.4005,2445.45)">
                            <text x="10174.5px" y="1504.08px" style="font-family:'Inter-Regular', 'Inter';font-size:125px;fill:rgb(52,52,52);">e</text>
                        </g>
                    </g>
                </g>
                <g transform="matrix(0.965154,-0.257622,0.257331,0.966246,8292.66,1510.66)">
                    <text id="technical-debt1" serif:id="technical debt" x="707.756px" y="447.408px" style="font-family:'Inter-Regular', 'Inter';font-size:125px;fill:rgb(51,51,51);">t<tspan x="752.5px " y="447.408px ">e</tspan>chnical debt</text>
                </g>
                <g transform="matrix(0.99887,0,0,1,5477,-6614)">
                    <path d="M3305.79,7882.86L3305.79,8918.82" style="fill:none;"/>
                    <g transform="matrix(1,-0,-0,1,9.09495e-13,6614)">
                        <path d="M3399.54,1456.36L3305.79,1268.86L3212.04,1456.36L3399.54,1456.36Z" style="fill:url(#_Linear3);"/>
                        <path d="M3399.54,2117.32L3305.79,2304.82L3212.04,2117.32L3399.54,2117.32Z" style="fill:url(#_Linear4);"/>
                        <path d="M3305.79,1418.86L3305.79,2154.82" style="fill:none;stroke:url(#_Linear5);stroke-width:62.5px;stroke-linejoin:miter;"/>
                    </g>
                </g>
            </g>
            <g transform="matrix(0.99887,0,0,1,6.19028,530.017)">
                <g id="trapped">
                    <g id="trapped1" serif:id="trapped">
                        <g transform="matrix(0.983984,-0.178255,0.178255,0.983984,-159.938,1771.91)">
                            <text x="9780.75px" y="1776.01px" style="font-family:'Inter-Regular', 'Inter';font-size:125px;fill:rgb(255,102,0);">t</text>
                        </g>
                        <g transform="matrix(0.98307,-0.18323,0.18323,0.98307,-157.562,1830.36)">
                            <text x="9826.05px" y="1767.82px" style="font-family:'Inter-Regular', 'Inter';font-size:125px;fill:rgb(255,102,0);">r</text>
                        </g>
                        <g transform="matrix(0.982005,-0.188856,0.188856,0.982005,-154.582,1896.12)">
                            <text x="9872.42px" y="1759.21px" style="font-family:'Inter-Regular', 'Inter';font-size:125px;fill:rgb(255,102,0);">a</text>
                        </g>
                        <g transform="matrix(0.980303,-0.197497,0.197497,0.980303,-148.934,1998.05)">
                            <text x="9942.73px" y="1745.7px" style="font-family:'Inter-Regular', 'Inter';font-size:125px;fill:rgb(255,102,0);">p</text>
                        </g>
                        <g transform="matrix(0.978362,-0.206902,0.206902,0.978362,-141.24,2110.33)">
                            <text x="10018.7px" y="1730.42px" style="font-family:'Inter-Regular', 'Inter';font-size:125px;fill:rgb(255,102,0);">p</text>
                        </g>
                        <g transform="matrix(0.976225,-0.216758,0.216758,0.976225,-131.622,2228.79)">
                            <text x="10094.4px" y="1714.41px" style="font-family:'Inter-Regular', 'Inter';font-size:125px;fill:rgb(255,102,0);">e</text>
                        </g>
                        <g transform="matrix(0.973739,-0.227665,0.227665,0.973739,-119.654,2359.26)">
                            <text x="10166.9px" y="1698.3px" style="font-family:'Inter-Regular', 'Inter';font-size:125px;fill:rgb(255,102,0);">d</text>
                        </g>
                    </g>
                </g>
            </g>
            <g id="Coordinate-System" transform="matrix(0.99887,0,0,1,5609.44,-103.955)">
                <g transform="matrix(6.12709e-17,-1,1,4.82939e-17,-258.157,1770.02)">
                    <text x="895.438px" y="377.941px" style="font-family:'Inter-Regular', 'Inter';font-size:83.333px;fill:rgb(50,50,50);stroke:rgb(150,150,150);stroke-width:1px;stroke-miterlimit:2;">eff<tspan x="1002.21px 1051.92px 1085.78px " y="377.941px 377.941px 377.941px ">ort</tspan> per f<tspan x="1321.46px " y="377.941px ">e</tspan>atur<tspan x="1525.29px " y="377.941px ">e</tspan></text>
                </g>
                <g transform="matrix(1,0,0,1,3731.83,2348.71)">
                    <text x="861.437px" y="373.775px" style="font-family:'Inter-Regular', 'Inter';font-size:83.333px;fill:rgb(50,50,50);stroke:rgb(150,150,150);stroke-width:1px;stroke-miterlimit:2;">time</text>
                </g>
                <g transform="matrix(1.14143,0,0,1.40411,-429.188,-834.414)">
                    <g transform="matrix(0.876095,-0,-0,0.712197,259.85,668.304)">
                        <path d="M366.403,167.245L328.903,92.245L291.403,167.245L366.403,167.245Z" style="fill:rgb(150,150,150);"/>
                        <path d="M4821.9,2448.74L4896.9,2486.24L4821.9,2523.74L4821.9,2448.74Z" style="fill:rgb(150,150,150);"/>
                        <path d="M328.903,152.245L328.903,2486.24L4836.9,2486.24" style="fill:none;stroke:rgb(150,150,150);stroke-width:25px;stroke-linecap:round;"/>
                    </g>
                </g>
            </g>
        </g>
    </g>
    <defs>
        <linearGradient id="_Linear1" x1="0" y1="0" x2="1" y2="0" gradientUnits="userSpaceOnUse" gradientTransform="matrix(1173.9,-966.774,966.774,1173.9,1765.01,2437.07)"><stop offset="0" style="stop-color:rgb(255,102,0);stop-opacity:1"/><stop offset="1" style="stop-color:rgb(9,134,208);stop-opacity:1"/></linearGradient>
        <linearGradient id="_Linear2" x1="0" y1="0" x2="1" y2="0" gradientUnits="userSpaceOnUse" gradientTransform="matrix(1173.9,-966.774,966.774,1173.9,1765.01,2437.07)"><stop offset="0" style="stop-color:rgb(255,102,0);stop-opacity:1"/><stop offset="1" style="stop-color:rgb(9,134,208);stop-opacity:1"/></linearGradient>
        <linearGradient id="_Linear3" x1="0" y1="0" x2="1" y2="0" gradientUnits="userSpaceOnUse" gradientTransform="matrix(5.70653e-13,-2e-06,1129.29,1.01064e-21,3487.35,2291.41)"><stop offset="0" style="stop-color:rgb(255,102,0);stop-opacity:1"/><stop offset="1" style="stop-color:rgb(9,134,208);stop-opacity:1"/></linearGradient>
        <linearGradient id="_Linear4" x1="0" y1="0" x2="1" y2="0" gradientUnits="userSpaceOnUse" gradientTransform="matrix(5.70653e-13,-2e-06,1129.29,1.01064e-21,3487.35,2291.41)"><stop offset="0" style="stop-color:rgb(255,102,0);stop-opacity:1"/><stop offset="1" style="stop-color:rgb(9,134,208);stop-opacity:1"/></linearGradient>
        <linearGradient id="_Linear5" x1="0" y1="0" x2="1" y2="0" gradientUnits="userSpaceOnUse" gradientTransform="matrix(5.70653e-13,-2e-06,1129.29,1.01064e-21,3487.35,2291.41)"><stop offset="0" style="stop-color:rgb(255,102,0);stop-opacity:1"/><stop offset="1" style="stop-color:rgb(9,134,208);stop-opacity:1"/></linearGradient>
    </defs>
</svg>
