<?xml version="1.0" encoding="UTF-8" standalone="no"?>
<!DOCTYPE svg PUBLIC "-//W3C//DTD SVG 1.1//EN" "http://www.w3.org/Graphics/SVG/1.1/DTD/svg11.dtd">
<svg width="100%" height="100%" viewBox="0 0 5079 2717" version="1.1" xmlns="http://www.w3.org/2000/svg" xmlns:xlink="http://www.w3.org/1999/xlink" xml:space="preserve" xmlns:serif="http://www.serif.com/" style="fill-rule:evenodd;clip-rule:evenodd;stroke-linejoin:round;stroke-miterlimit:1.5;">
    <g transform="matrix(1,0,0,1,-5669,-16535)">
        <g id="unbalanced-forces" serif:id="unbalanced forces" transform="matrix(1.00113,0,0,1,185.803,16535)">
            <rect x="5477" y="0" width="5073" height="2716.53" style="fill:none;"/>
            <g id="strategic-forces" serif:id="strategic forces">
                <g transform="matrix(0.99887,0,0,1,8304.91,775.933)">
                    <text x="1467.63px" y="386.676px" style="font-family:'Inter-Bold', 'Inter';font-weight:700;font-size:83.333px;fill:rgb(51,51,51);">de<tspan x="1569.1px " y="386.676px ">v</tspan>-</text>
                    <text x="1656.99px" y="386.676px" style="font-family:'Inter-Bold', 'Inter';font-weight:700;font-size:83.333px;fill:rgb(51,51,51);">o</text>
                    <text x="1708.96px" y="386.676px" style="font-family:'Inter-Bold', 'Inter';font-weight:700;font-size:83.333px;fill:rgb(51,51,51);">ps</text>
                    <text x="966.953px" y="486.676px" style="font-family:'Inter-Bold', 'Inter';font-weight:700;font-size:83.333px;fill:rgb(51,51,51);">str<tspan x="1078.93px 1127.29px 1159.19px " y="486.676px 486.676px 486.676px ">ate</tspan>gic de<tspan x="1454.17px 1501.49px " y="486.676px 486.676px ">ve</tspan>lopers</text>
                </g>
                <g transform="matrix(-3.01743,0,0,1,12358.8,-895.743)">
                    <g transform="matrix(-0.331034,0,0,1,2280.7,895.743)">
                        <path d="M4698.37,1257.73L4823.37,1320.23L4698.37,1382.73L4698.37,1257.73Z" style="fill:rgb(9,134,208);"/>
                        <path d="M2539.37,1320.23L4723.37,1320.23" style="fill:none;stroke:rgb(9,134,208);stroke-width:41.67px;"/>
                    </g>
                </g>
            </g>
            <g id="tactical-forces" serif:id="tactical forces" transform="matrix(1,0,0,1,0,1)">
                <g transform="matrix(0.99887,0,0,1,5851.66,455.344)">
                    <text x="707.756px" y="368.013px" style="font-family:'Inter-Bold', 'Inter';font-weight:700;font-size:83.333px;fill:rgb(51,51,51);">mark<tspan x="912.745px " y="368.013px ">e</tspan>t</text>
                    <text x="707.756px" y="468.013px" style="font-family:'Inter-Bold', 'Inter';font-weight:700;font-size:83.333px;fill:rgb(51,51,51);">cust<tspan x="887.236px " y="468.013px ">o</tspan>mers</text>
                    <text x="707.756px" y="568.013px" style="font-family:'Inter-Bold', 'Inter';font-weight:700;font-size:83.333px;fill:rgb(51,51,51);">stak<tspan x="881.88px " y="568.013px ">e</tspan>holders</text>
                    <text x="707.756px" y="668.013px" style="font-family:'Inter-Bold', 'Inter';font-weight:700;font-size:83.333px;fill:rgb(51,51,51);">tact</text>
                    <text x="869.806px" y="668.013px" style="font-family:'Inter-Bold', 'Inter';font-weight:700;font-size:83.333px;fill:rgb(51,51,51);">i</text>
                    <text x="891.641px" y="668.013px" style="font-family:'Inter-Bold', 'Inter';font-weight:700;font-size:83.333px;fill:rgb(51,51,51);">cal de<tspan x="1132.41px 1179.73px " y="668.013px 668.013px ">ve</tspan>lopers</text>
                </g>
                <g transform="matrix(3.01743,0,0,1,3668.16,-895.743)">
                    <g transform="matrix(0.331034,-0,-0,1,599.464,894.743)">
                        <path d="M1005.37,1696.23L255.37,1321.23L1005.37,946.234L1005.37,1696.23Z" style="fill:rgb(255,102,0);"/>
                        <path d="M2539.37,1321.23L855.37,1321.23" style="fill:none;stroke:rgb(255,102,0);stroke-width:250px;"/>
                    </g>
                </g>
            </g>
            <g id="Coordinate-System" transform="matrix(0.99887,0,0,1,5535.99,-774.461)">
                <g transform="matrix(1,0,0,1,3082.83,2348.71)">
                    <text x="798.316px" y="373.775px" style="font-family:'Inter-Regular', 'Inter';font-size:83.333px;fill:rgb(50,50,50);stroke:rgb(150,150,150);stroke-width:1px;stroke-miterlimit:2;">strat<tspan x="980.016px " y="373.775px ">e</tspan>gic de<tspan x="1267.89px 1312.64px " y="373.775px 373.775px ">ve</tspan>lopment</text>
                </g>
                <g transform="matrix(1,0,0,1,-511.441,2348.71)">
                    <text x="707.756px" y="373.775px" style="font-family:'Inter-Regular', 'Inter';font-size:83.333px;fill:rgb(50,50,50);stroke:rgb(150,150,150);stroke-width:1px;stroke-miterlimit:2;">tactical de<tspan x="1117.2px 1161.95px " y="373.775px 373.775px ">ve</tspan>lopment</text>
                </g>
                <g transform="matrix(1.14143,0,0,1.40411,-429.188,-834.414)">
                    <g transform="matrix(0.876095,-0,-0,0.712197,324.272,1145.84)">
                        <path d="M330.37,1778.24L255.37,1815.74L330.37,1853.24L330.37,1778.24Z" style="fill:rgb(150,150,150);"/>
                        <path d="M4748.37,1778.24L4823.37,1815.74L4748.37,1853.24L4748.37,1778.24Z" style="fill:rgb(150,150,150);"/>
                        <path d="M315.37,1815.74L4763.37,1815.74" style="fill:none;stroke:rgb(150,150,150);stroke-width:25px;stroke-linecap:round;"/>
                    </g>
                </g>
            </g>
        </g>
    </g>
</svg>
